<svg width="48" height="55" viewBox="0 0 48 55" fill="none" xmlns="http://www.w3.org/2000/svg">
<mask id="mask0_288_3394" style="mask-type:alpha" maskUnits="userSpaceOnUse" x="0" y="0" width="48" height="55">
<path d="M44.1176 54.3529H3.88235C1.73819 54.3529 0 52.6147 0 50.4706V3.88235C0 1.73819 1.73819 0 3.88235 0H30L48 18V50.4706C48 52.6147 46.2618 54.3529 44.1176 54.3529Z" fill="url(#paint0_linear_288_3394)"/>
</mask>
<g mask="url(#mask0_288_3394)">
<path d="M44.1176 54.3529H3.88235C1.73819 54.3529 0 52.6147 0 50.4706V3.88235C0 1.73819 1.73819 0 3.88235 0H30L48 18V50.4706C48 52.6147 46.2618 54.3529 44.1176 54.3529Z" fill="url(#paint1_linear_288_3394)"/>
<g opacity="0.27" filter="url(#filter0_f_288_3394)">
<rect x="8.4707" y="26.2939" width="31.4118" height="14.8235" fill="#0072A2" style="mix-blend-mode:darken"/>
</g>
<mask id="path-4-outside-1_288_3394" maskUnits="userSpaceOnUse" x="8.23535" y="27.5879" width="33" height="12" fill="black">
<rect fill="white" x="8.23535" y="27.5879" width="33" height="12"/>
<path d="M9.50084 38.5879C9.32425 38.5879 9.17554 38.5275 9.05472 38.4067C8.93389 38.2858 8.87348 38.1371 8.87348 37.9605V29.4982C8.87348 29.3217 8.93389 29.1729 9.05472 29.0521C9.17554 28.922 9.32425 28.8569 9.50084 28.8569H12.303C13.1395 28.8569 13.8644 29.001 14.4778 29.2891C15.0912 29.5679 15.6024 29.9444 16.0114 30.4184C16.4203 30.8831 16.7224 31.4035 16.9175 31.9798C17.122 32.556 17.2242 33.1369 17.2242 33.7224C17.2242 34.3079 17.122 34.8888 16.9175 35.4651C16.7224 36.0413 16.4203 36.5664 16.0114 37.0404C15.6024 37.5051 15.0912 37.8815 14.4778 38.1697C13.8644 38.4485 13.1395 38.5879 12.303 38.5879H9.50084ZM10.1421 37.4029H12.1497C12.9304 37.4029 13.6042 37.2495 14.1711 36.9428C14.7474 36.6268 15.1888 36.1947 15.4955 35.6463C15.8115 35.0887 15.9695 34.4474 15.9695 33.7224C15.9695 32.9975 15.8115 32.3608 15.4955 31.8125C15.1888 31.2548 14.7474 30.8227 14.1711 30.5159C13.6042 30.1999 12.9304 30.0419 12.1497 30.0419H10.1421V37.4029ZM24.6267 38.7273C23.6322 38.7273 22.7725 38.5135 22.0476 38.086C21.3226 37.6585 20.7603 37.0683 20.3607 36.3155C19.961 35.5627 19.7519 34.6983 19.7333 33.7224C19.7519 32.7465 19.961 31.8822 20.3607 31.1294C20.7603 30.3765 21.3226 29.7864 22.0476 29.3588C22.7725 28.9313 23.6322 28.7175 24.6267 28.7175C25.6212 28.7175 26.4809 28.9313 27.2058 29.3588C27.9307 29.7864 28.493 30.3765 28.8927 31.1294C29.2923 31.8822 29.5015 32.7465 29.52 33.7224C29.5015 34.6983 29.2923 35.5627 28.8927 36.3155C28.493 37.0683 27.9307 37.6585 27.2058 38.086C26.4809 38.5135 25.6212 38.7273 24.6267 38.7273ZM24.6267 37.5423C25.3981 37.5423 26.0533 37.375 26.5924 37.0404C27.1315 36.6965 27.5404 36.2365 27.8192 35.6602C28.1073 35.084 28.2514 34.4381 28.2514 33.7224C28.2514 33.0068 28.1073 32.3608 27.8192 31.7846C27.5404 31.2084 27.1315 30.7529 26.5924 30.4184C26.0533 30.0745 25.3981 29.9025 24.6267 29.9025C23.8553 29.9025 23.2 30.0745 22.661 30.4184C22.1219 30.7529 21.7083 31.2084 21.4202 31.7846C21.1414 32.3608 21.002 33.0068 21.002 33.7224C21.002 34.4381 21.1414 35.084 21.4202 35.6602C21.7083 36.2365 22.1219 36.6965 22.661 37.0404C23.2 37.375 23.8553 37.5423 24.6267 37.5423ZM36.9022 38.7273C35.9821 38.7273 35.1503 38.5275 34.4067 38.1278C33.6725 37.7189 33.0916 37.1427 32.6641 36.3991C32.2366 35.6463 32.0228 34.7541 32.0228 33.7224C32.0228 32.6815 32.2366 31.7892 32.6641 31.0457C33.0916 30.3022 33.6725 29.7306 34.4067 29.3309C35.1503 28.922 35.9821 28.7175 36.9022 28.7175C37.59 28.7175 38.1848 28.8012 38.6867 28.9685C39.1886 29.1358 39.6533 29.3402 40.0808 29.5819C40.1737 29.6284 40.2435 29.6934 40.2899 29.7771C40.3457 29.8514 40.3782 29.9537 40.3875 30.0838C40.3968 30.2325 40.3503 30.3626 40.2481 30.4741C40.1459 30.5857 40.0065 30.6414 39.8299 30.6414C39.7369 30.6414 39.6533 30.6228 39.5789 30.5857C39.2072 30.3905 38.8261 30.2325 38.4357 30.1117C38.0454 29.9908 37.576 29.9304 37.0277 29.9304C36.2098 29.9304 35.522 30.0977 34.9644 30.4323C34.4067 30.7669 33.9885 31.2223 33.7097 31.7985C33.4309 32.3655 33.2915 33.0068 33.2915 33.7224C33.2915 34.4381 33.4309 35.084 33.7097 35.6602C33.9885 36.2272 34.4067 36.6779 34.9644 37.0125C35.522 37.3471 36.2098 37.5144 37.0277 37.5144C37.576 37.5144 38.0454 37.454 38.4357 37.3332C38.8261 37.2124 39.2072 37.0544 39.5789 36.8592C39.6533 36.822 39.7369 36.8034 39.8299 36.8034C40.0065 36.8034 40.1459 36.8592 40.2481 36.9707C40.3503 37.0822 40.3968 37.2124 40.3875 37.3611C40.3782 37.4912 40.3457 37.5981 40.2899 37.6817C40.2435 37.7561 40.1737 37.8165 40.0808 37.8629C39.6533 38.1046 39.1886 38.3091 38.6867 38.4764C38.1848 38.6437 37.59 38.7273 36.9022 38.7273Z"/>
</mask>
<path d="M9.50084 38.5879C9.32425 38.5879 9.17554 38.5275 9.05472 38.4067C8.93389 38.2858 8.87348 38.1371 8.87348 37.9605V29.4982C8.87348 29.3217 8.93389 29.1729 9.05472 29.0521C9.17554 28.922 9.32425 28.8569 9.50084 28.8569H12.303C13.1395 28.8569 13.8644 29.001 14.4778 29.2891C15.0912 29.5679 15.6024 29.9444 16.0114 30.4184C16.4203 30.8831 16.7224 31.4035 16.9175 31.9798C17.122 32.556 17.2242 33.1369 17.2242 33.7224C17.2242 34.3079 17.122 34.8888 16.9175 35.4651C16.7224 36.0413 16.4203 36.5664 16.0114 37.0404C15.6024 37.5051 15.0912 37.8815 14.4778 38.1697C13.8644 38.4485 13.1395 38.5879 12.303 38.5879H9.50084ZM10.1421 37.4029H12.1497C12.9304 37.4029 13.6042 37.2495 14.1711 36.9428C14.7474 36.6268 15.1888 36.1947 15.4955 35.6463C15.8115 35.0887 15.9695 34.4474 15.9695 33.7224C15.9695 32.9975 15.8115 32.3608 15.4955 31.8125C15.1888 31.2548 14.7474 30.8227 14.1711 30.5159C13.6042 30.1999 12.9304 30.0419 12.1497 30.0419H10.1421V37.4029ZM24.6267 38.7273C23.6322 38.7273 22.7725 38.5135 22.0476 38.086C21.3226 37.6585 20.7603 37.0683 20.3607 36.3155C19.961 35.5627 19.7519 34.6983 19.7333 33.7224C19.7519 32.7465 19.961 31.8822 20.3607 31.1294C20.7603 30.3765 21.3226 29.7864 22.0476 29.3588C22.7725 28.9313 23.6322 28.7175 24.6267 28.7175C25.6212 28.7175 26.4809 28.9313 27.2058 29.3588C27.9307 29.7864 28.493 30.3765 28.8927 31.1294C29.2923 31.8822 29.5015 32.7465 29.52 33.7224C29.5015 34.6983 29.2923 35.5627 28.8927 36.3155C28.493 37.0683 27.9307 37.6585 27.2058 38.086C26.4809 38.5135 25.6212 38.7273 24.6267 38.7273ZM24.6267 37.5423C25.3981 37.5423 26.0533 37.375 26.5924 37.0404C27.1315 36.6965 27.5404 36.2365 27.8192 35.6602C28.1073 35.084 28.2514 34.4381 28.2514 33.7224C28.2514 33.0068 28.1073 32.3608 27.8192 31.7846C27.5404 31.2084 27.1315 30.7529 26.5924 30.4184C26.0533 30.0745 25.3981 29.9025 24.6267 29.9025C23.8553 29.9025 23.2 30.0745 22.661 30.4184C22.1219 30.7529 21.7083 31.2084 21.4202 31.7846C21.1414 32.3608 21.002 33.0068 21.002 33.7224C21.002 34.4381 21.1414 35.084 21.4202 35.6602C21.7083 36.2365 22.1219 36.6965 22.661 37.0404C23.2 37.375 23.8553 37.5423 24.6267 37.5423ZM36.9022 38.7273C35.9821 38.7273 35.1503 38.5275 34.4067 38.1278C33.6725 37.7189 33.0916 37.1427 32.6641 36.3991C32.2366 35.6463 32.0228 34.7541 32.0228 33.7224C32.0228 32.6815 32.2366 31.7892 32.6641 31.0457C33.0916 30.3022 33.6725 29.7306 34.4067 29.3309C35.1503 28.922 35.9821 28.7175 36.9022 28.7175C37.59 28.7175 38.1848 28.8012 38.6867 28.9685C39.1886 29.1358 39.6533 29.3402 40.0808 29.5819C40.1737 29.6284 40.2435 29.6934 40.2899 29.7771C40.3457 29.8514 40.3782 29.9537 40.3875 30.0838C40.3968 30.2325 40.3503 30.3626 40.2481 30.4741C40.1459 30.5857 40.0065 30.6414 39.8299 30.6414C39.7369 30.6414 39.6533 30.6228 39.5789 30.5857C39.2072 30.3905 38.8261 30.2325 38.4357 30.1117C38.0454 29.9908 37.576 29.9304 37.0277 29.9304C36.2098 29.9304 35.522 30.0977 34.9644 30.4323C34.4067 30.7669 33.9885 31.2223 33.7097 31.7985C33.4309 32.3655 33.2915 33.0068 33.2915 33.7224C33.2915 34.4381 33.4309 35.084 33.7097 35.6602C33.9885 36.2272 34.4067 36.6779 34.9644 37.0125C35.522 37.3471 36.2098 37.5144 37.0277 37.5144C37.576 37.5144 38.0454 37.454 38.4357 37.3332C38.8261 37.2124 39.2072 37.0544 39.5789 36.8592C39.6533 36.822 39.7369 36.8034 39.8299 36.8034C40.0065 36.8034 40.1459 36.8592 40.2481 36.9707C40.3503 37.0822 40.3968 37.2124 40.3875 37.3611C40.3782 37.4912 40.3457 37.5981 40.2899 37.6817C40.2435 37.7561 40.1737 37.8165 40.0808 37.8629C39.6533 38.1046 39.1886 38.3091 38.6867 38.4764C38.1848 38.6437 37.59 38.7273 36.9022 38.7273Z" fill="white"/>
<path d="M9.05472 38.4067L9.30429 38.1571L9.05472 38.4067ZM9.05472 29.0521L9.30446 29.3019L9.31335 29.2923L9.05472 29.0521ZM14.4778 29.2891L14.3278 29.6086L14.3318 29.6104L14.4778 29.2891ZM16.0114 30.4184L15.7441 30.6489L15.7464 30.6515L16.0114 30.4184ZM16.9175 31.9798L16.5832 32.093L16.5849 32.0978L16.9175 31.9798ZM16.9175 35.4651L16.5849 35.347L16.5833 35.3518L16.9175 35.4651ZM16.0114 37.0404L16.2763 37.2736L16.2786 37.271L16.0114 37.0404ZM14.4778 38.1697L14.6239 38.491L14.6279 38.4891L14.4778 38.1697ZM10.1421 37.4029H9.78919V37.7558H10.1421V37.4029ZM14.1711 36.9428L14.3391 37.2533L14.3408 37.2523L14.1711 36.9428ZM15.4955 35.6463L15.1885 35.4723L15.1875 35.474L15.4955 35.6463ZM15.4955 31.8125L15.1862 31.9826L15.1897 31.9887L15.4955 31.8125ZM14.1711 30.5159L13.9993 30.8243L14.0053 30.8275L14.1711 30.5159ZM10.1421 30.0419V29.689H9.78919V30.0419H10.1421ZM9.50084 38.2349C9.41435 38.2349 9.35648 38.2093 9.30429 38.1571L8.80515 38.6562C8.9946 38.8457 9.23414 38.9408 9.50084 38.9408V38.2349ZM9.30429 38.1571C9.25209 38.1049 9.22642 38.047 9.22642 37.9605H8.52054C8.52054 38.2272 8.6157 38.4668 8.80515 38.6562L9.30429 38.1571ZM9.22642 37.9605V29.4982H8.52054V37.9605H9.22642ZM9.22642 29.4982C9.22642 29.4118 9.25209 29.3539 9.30429 29.3017L8.80515 28.8026C8.6157 28.992 8.52054 29.2315 8.52054 29.4982H9.22642ZM9.31335 29.2923C9.36781 29.2336 9.42301 29.2099 9.50084 29.2099V28.504C9.22549 28.504 8.98327 28.6104 8.79609 28.812L9.31335 29.2923ZM9.50084 29.2099H12.303V28.504H9.50084V29.2099ZM12.303 29.2099C13.0995 29.2099 13.771 29.3471 14.3278 29.6086L14.6279 28.9697C13.9579 28.655 13.1795 28.504 12.303 28.504V29.2099ZM14.3318 29.6104C14.9023 29.8698 15.371 30.2165 15.7441 30.6489L16.2786 30.1878C15.8338 29.6723 15.2802 29.2661 14.6239 28.9678L14.3318 29.6104ZM15.7464 30.6515C16.1251 31.0819 16.4033 31.5617 16.5833 32.093L17.2518 31.8665C17.0414 31.2454 16.7155 30.6843 16.2763 30.1852L15.7464 30.6515ZM16.5849 32.0978C16.7765 32.6378 16.8713 33.1789 16.8713 33.7224H17.5772C17.5772 33.0949 17.4675 32.4742 17.2502 31.8617L16.5849 32.0978ZM16.8713 33.7224C16.8713 34.266 16.7765 34.807 16.5849 35.347L17.2502 35.5831C17.4675 34.9707 17.5772 34.3499 17.5772 33.7224H16.8713ZM16.5833 35.3518C16.4031 35.8838 16.1243 36.3693 15.7441 36.8099L16.2786 37.271C16.7164 36.7636 17.0416 36.1988 17.2518 35.5783L16.5833 35.3518ZM15.7464 36.8073C15.3724 37.2323 14.9016 37.5807 14.3278 37.8502L14.6279 38.4891C15.2809 38.1824 15.8325 37.7779 16.2763 37.2736L15.7464 36.8073ZM14.3318 37.8483C13.7739 38.1019 13.1009 38.2349 12.303 38.2349V38.9408C13.178 38.9408 13.9549 38.795 14.6239 38.491L14.3318 37.8483ZM12.303 38.2349H9.50084V38.9408H12.303V38.2349ZM10.1421 37.7558H12.1497V37.0499H10.1421V37.7558ZM12.1497 37.7558C12.9767 37.7558 13.7107 37.5932 14.3391 37.2533L14.0032 36.6324C13.4977 36.9059 12.884 37.0499 12.1497 37.0499V37.7558ZM14.3408 37.2523C14.9723 36.906 15.463 36.4275 15.8036 35.8186L15.1875 35.474C14.9147 35.9618 14.5224 36.3477 14.0014 36.6334L14.3408 37.2523ZM15.8026 35.8203C16.1524 35.2029 16.3225 34.5002 16.3225 33.7224H15.6166C15.6166 34.3945 15.4706 34.9744 15.1885 35.4723L15.8026 35.8203ZM16.3225 33.7224C16.3225 32.9448 16.1525 32.2456 15.8013 31.6363L15.1897 31.9887C15.4706 32.4761 15.6166 33.0502 15.6166 33.7224H16.3225ZM15.8048 31.6424C15.4642 31.023 14.9721 30.5424 14.337 30.2044L14.0053 30.8275C14.5226 31.1029 14.9135 31.4866 15.1863 31.9826L15.8048 31.6424ZM14.343 30.2077C13.7138 29.857 12.9783 29.689 12.1497 29.689V30.3949C12.8824 30.3949 13.4946 30.5429 13.9993 30.8242L14.343 30.2077ZM12.1497 29.689H10.1421V30.3949H12.1497V29.689ZM9.78919 30.0419V37.4029H10.4951V30.0419H9.78919ZM22.0476 38.086L22.2269 37.782L22.0476 38.086ZM20.3607 36.3155L20.0489 36.481L20.3607 36.3155ZM19.7333 33.7224L19.3802 33.7157L19.3805 33.7291L19.7333 33.7224ZM20.3607 31.1294L20.6724 31.2949L20.3607 31.1294ZM22.0476 29.3588L21.8683 29.0548V29.0548L22.0476 29.3588ZM27.2058 29.3588L27.3851 29.0548V29.0548L27.2058 29.3588ZM28.8927 31.1294L28.5809 31.2949L28.8927 31.1294ZM29.52 33.7224L29.8732 33.7291L29.8729 33.7157L29.52 33.7224ZM28.8927 36.3155L28.5809 36.15L28.8927 36.3155ZM27.2058 38.086L27.0265 37.782L27.2058 38.086ZM26.5924 37.0404L26.7785 37.3403L26.7822 37.338L26.5924 37.0404ZM27.8192 35.6602L27.5035 35.5024L27.5015 35.5065L27.8192 35.6602ZM27.8192 31.7846L27.5015 31.9383L27.5035 31.9424L27.8192 31.7846ZM26.5924 30.4184L26.4026 30.7159L26.4063 30.7182L26.5924 30.4184ZM22.661 30.4184L22.8471 30.7183L22.8508 30.7159L22.661 30.4184ZM21.4202 31.7846L21.1045 31.6267L21.1025 31.6309L21.4202 31.7846ZM21.4202 35.6602L21.1025 35.814L21.1045 35.8181L21.4202 35.6602ZM22.661 37.0404L22.4711 37.338L22.4749 37.3403L22.661 37.0404ZM24.6267 38.3744C23.6837 38.3744 22.8883 38.1721 22.2269 37.782L21.8683 38.39C22.6567 38.855 23.5807 39.0802 24.6267 39.0802V38.3744ZM22.2269 37.782C21.5587 37.388 21.042 36.8461 20.6724 36.15L20.0489 36.481C20.4787 37.2905 21.0865 37.929 21.8683 38.39L22.2269 37.782ZM20.6724 36.15C20.3023 35.4528 20.1039 34.6442 20.0862 33.7157L19.3805 33.7291C19.3999 34.7524 19.6198 35.6725 20.0489 36.481L20.6724 36.15ZM20.0862 33.7291C20.1039 32.8006 20.3023 31.992 20.6724 31.2949L20.0489 30.9639C19.6198 31.7723 19.3999 32.6925 19.3805 33.7157L20.0862 33.7291ZM20.6724 31.2949C21.042 30.5988 21.5587 30.0569 22.2269 29.6628L21.8683 29.0548C21.0865 29.5159 20.4787 30.1543 20.0489 30.9639L20.6724 31.2949ZM22.2269 29.6628C22.8883 29.2727 23.6837 29.0705 24.6267 29.0705V28.3646C23.5807 28.3646 22.6567 28.5899 21.8683 29.0548L22.2269 29.6628ZM24.6267 29.0705C25.5696 29.0705 26.365 29.2727 27.0265 29.6628L27.3851 29.0548C26.5967 28.5899 25.6727 28.3646 24.6267 28.3646V29.0705ZM27.0265 29.6628C27.6946 30.0569 28.2114 30.5988 28.5809 31.2949L29.2044 30.9639C28.7747 30.1543 28.1669 29.5159 27.3851 29.0548L27.0265 29.6628ZM28.5809 31.2949C28.9511 31.992 29.1495 32.8006 29.1672 33.7291L29.8729 33.7157C29.8534 32.6925 29.6336 31.7723 29.2044 30.9639L28.5809 31.2949ZM29.1672 33.7157C29.1495 34.6442 28.9511 35.4528 28.5809 36.15L29.2044 36.481C29.6336 35.6725 29.8534 34.7524 29.8729 33.7291L29.1672 33.7157ZM28.5809 36.15C28.2114 36.8461 27.6946 37.388 27.0265 37.782L27.3851 38.39C28.1669 37.929 28.7747 37.2905 29.2044 36.481L28.5809 36.15ZM27.0265 37.782C26.365 38.1721 25.5696 38.3744 24.6267 38.3744V39.0802C25.6727 39.0802 26.5967 38.855 27.3851 38.39L27.0265 37.782ZM24.6267 37.8952C25.4496 37.8952 26.1726 37.7164 26.7785 37.3403L26.4063 36.7405C25.9341 37.0336 25.3466 37.1894 24.6267 37.1894V37.8952ZM26.7822 37.338C27.3765 36.9589 27.8296 36.449 28.1369 35.814L27.5015 35.5065C27.2511 36.024 26.8864 36.4342 26.4026 36.7429L26.7822 37.338ZM28.1349 35.8181C28.4501 35.1876 28.6043 34.4867 28.6043 33.7224H27.8985C27.8985 34.3894 27.7645 34.9804 27.5035 35.5024L28.1349 35.8181ZM28.6043 33.7224C28.6043 32.9581 28.4501 32.2572 28.1349 31.6268L27.5035 31.9424C27.7645 32.4644 27.8985 33.0554 27.8985 33.7224H28.6043ZM28.1369 31.6309C27.8292 30.995 27.3749 30.4887 26.7785 30.1185L26.4063 30.7182C26.888 31.0172 27.2515 31.4217 27.5015 31.9383L28.1369 31.6309ZM26.7822 30.1208C26.1757 29.7339 25.4513 29.5496 24.6267 29.5496V30.2555C25.3448 30.2555 25.931 30.4151 26.4026 30.7159L26.7822 30.1208ZM24.6267 29.5496C23.802 29.5496 23.0777 29.7339 22.4712 30.1208L22.8508 30.7159C23.3224 30.4151 23.9085 30.2555 24.6267 30.2555V29.5496ZM22.4749 30.1185C21.8794 30.4881 21.4214 30.9931 21.1045 31.6268L21.7359 31.9424C21.9953 31.4237 22.3644 31.0178 22.8471 30.7182L22.4749 30.1185ZM21.1025 31.6309C20.7979 32.2604 20.649 32.9599 20.649 33.7224H21.3549C21.3549 33.0537 21.4849 32.4612 21.7379 31.9383L21.1025 31.6309ZM20.649 33.7224C20.649 34.485 20.7979 35.1844 21.1025 35.814L21.7379 35.5065C21.4849 34.9836 21.3549 34.3912 21.3549 33.7224H20.649ZM21.1045 35.8181C21.421 36.451 21.8779 36.9595 22.4712 37.338L22.8508 36.7429C22.366 36.4336 21.9957 36.022 21.7359 35.5024L21.1045 35.8181ZM22.4749 37.3403C23.0808 37.7164 23.8037 37.8952 24.6267 37.8952V37.1894C23.9068 37.1894 23.3193 37.0336 22.8471 36.7405L22.4749 37.3403ZM34.4067 38.1278L34.235 38.4362L34.2396 38.4387L34.4067 38.1278ZM32.6641 36.3991L32.3572 36.5734L32.3581 36.5751L32.6641 36.3991ZM32.6641 31.0457L32.9701 31.2216L32.6641 31.0457ZM34.4067 29.3309L34.5755 29.6409L34.5768 29.6402L34.4067 29.3309ZM38.6867 28.9685L38.7983 28.6336L38.6867 28.9685ZM40.0808 29.5819L39.9071 29.8891L39.9149 29.8936L39.923 29.8976L40.0808 29.5819ZM40.2899 29.7771L39.9814 29.9485L39.9931 29.9695L40.0076 29.9888L40.2899 29.7771ZM40.3875 30.0838L40.7398 30.0618L40.7396 30.0586L40.3875 30.0838ZM40.2481 30.4741L40.5083 30.7126L40.5083 30.7126L40.2481 30.4741ZM39.5789 30.5857L39.4148 30.8982L39.4211 30.9013L39.5789 30.5857ZM38.4357 30.1117L38.5401 29.7745L38.4357 30.1117ZM34.9644 30.4323L34.7828 30.1297L34.9644 30.4323ZM33.7097 31.7985L34.0264 31.9543L34.0274 31.9523L33.7097 31.7985ZM33.7097 35.6602L33.392 35.814L33.393 35.816L33.7097 35.6602ZM34.9644 37.0125L34.7828 37.3152L34.9644 37.0125ZM38.4357 37.3332L38.5401 37.6703L38.4357 37.3332ZM39.5789 36.8592L39.4211 36.5434L39.4149 36.5467L39.5789 36.8592ZM40.2481 36.9707L40.5083 36.7322L40.5083 36.7322L40.2481 36.9707ZM40.3875 37.3611L40.7396 37.3862L40.7398 37.3831L40.3875 37.3611ZM40.2899 37.6817L39.9961 37.4859L39.9906 37.4947L40.2899 37.6817ZM40.0808 37.8629L39.923 37.5473L39.9149 37.5513L39.9071 37.5557L40.0808 37.8629ZM38.6867 38.4764L38.7983 38.8112L38.6867 38.4764ZM36.9022 38.3744C36.035 38.3744 35.2615 38.1866 34.5738 37.817L34.2396 38.4387C35.0391 38.8684 35.9292 39.0802 36.9022 39.0802V38.3744ZM34.5785 37.8195C33.9014 37.4424 33.3664 36.9124 32.9701 36.2232L32.3581 36.5751C32.8169 37.3729 33.4437 37.9954 34.235 38.4362L34.5785 37.8195ZM32.971 36.2248C32.579 35.5345 32.3757 34.7047 32.3757 33.7224H31.6699C31.6699 34.8034 31.8942 35.7581 32.3572 36.5734L32.971 36.2248ZM32.3757 33.7224C32.3757 32.7301 32.5793 31.9013 32.9701 31.2216L32.3581 30.8698C31.8939 31.6772 31.6699 32.6329 31.6699 33.7224H32.3757ZM32.9701 31.2216C33.366 30.5331 33.9 30.0086 34.5755 29.6409L34.238 29.021C33.445 29.4526 32.8173 30.0713 32.3581 30.8698L32.9701 31.2216ZM34.5768 29.6402C35.2639 29.2623 36.0364 29.0705 36.9022 29.0705V28.3646C35.9278 28.3646 35.0366 28.5817 34.2367 29.0217L34.5768 29.6402ZM36.9022 29.0705C37.5628 29.0705 38.1181 29.151 38.5751 29.3033L38.7983 28.6336C38.2515 28.4514 37.6172 28.3646 36.9022 28.3646V29.0705ZM38.5751 29.3033C39.0571 29.464 39.5008 29.6595 39.9071 29.8891L40.2545 29.2746C39.8057 29.021 39.3201 28.8076 38.7983 28.6336L38.5751 29.3033ZM39.923 29.8976C39.958 29.9151 39.9725 29.9324 39.9814 29.9485L40.5984 29.6057C40.5145 29.4545 40.3895 29.3416 40.2386 29.2662L39.923 29.8976ZM40.0076 29.9888C40.0094 29.9912 40.0291 30.0202 40.0355 30.1089L40.7396 30.0586C40.7273 29.8871 40.682 29.7116 40.5723 29.5653L40.0076 29.9888ZM40.0353 30.1058C40.0385 30.1571 40.0265 30.1936 39.9879 30.2356L40.5083 30.7126C40.6742 30.5316 40.7551 30.3079 40.7398 30.0618L40.0353 30.1058ZM39.9879 30.2356C39.9639 30.2619 39.9256 30.2885 39.8299 30.2885V30.9944C40.0873 30.9944 40.3279 30.9094 40.5083 30.7126L39.9879 30.2356ZM39.8299 30.2885C39.7852 30.2885 39.7566 30.2799 39.7368 30.27L39.4211 30.9013C39.55 30.9658 39.6887 30.9944 39.8299 30.9944V30.2885ZM39.743 30.2732C39.3526 30.0682 38.9516 29.9019 38.5401 29.7745L38.3314 30.4488C38.7006 30.5631 39.0617 30.7127 39.4149 30.8981L39.743 30.2732ZM38.5401 29.7745C38.1067 29.6403 37.6001 29.5775 37.0277 29.5775V30.2834C37.5519 30.2834 37.9841 30.3413 38.3314 30.4488L38.5401 29.7745ZM37.0277 29.5775C36.1621 29.5775 35.4078 29.7547 34.7828 30.1297L35.146 30.7349C35.6363 30.4408 36.2575 30.2834 37.0277 30.2834V29.5775ZM34.7828 30.1297C34.1673 30.499 33.7012 31.0057 33.392 31.6448L34.0274 31.9523C34.2758 31.4389 34.6462 31.0348 35.146 30.7349L34.7828 30.1297ZM33.393 31.6428C33.0873 32.2643 32.9385 32.96 32.9385 33.7224H33.6444C33.6444 33.0536 33.7744 32.4667 34.0264 31.9543L33.393 31.6428ZM32.9385 33.7224C32.9385 34.485 33.0874 35.1844 33.392 35.814L34.0274 35.5065C33.7744 34.9836 33.6444 34.3912 33.6444 33.7224H32.9385ZM33.393 35.816C33.7027 36.4457 34.1687 36.9467 34.7828 37.3152L35.146 36.7099C34.6448 36.4092 34.2743 36.0086 34.0264 35.5045L33.393 35.816ZM34.7828 37.3152C35.4078 37.6902 36.1621 37.8674 37.0277 37.8674V37.1615C36.2575 37.1615 35.6363 37.0041 35.146 36.7099L34.7828 37.3152ZM37.0277 37.8674C37.6001 37.8674 38.1066 37.8045 38.5401 37.6703L38.3314 36.996C37.9841 37.1035 37.5519 37.1615 37.0277 37.1615V37.8674ZM38.5401 37.6703C38.9516 37.543 39.3526 37.3766 39.743 37.1717L39.4149 36.5467C39.0617 36.7321 38.7006 36.8818 38.3314 36.996L38.5401 37.6703ZM39.7368 37.1749C39.7566 37.165 39.7852 37.1564 39.8299 37.1564V36.4505C39.6887 36.4505 39.55 36.4791 39.4211 36.5435L39.7368 37.1749ZM39.8299 37.1564C39.9256 37.1564 39.9639 37.183 39.9879 37.2092L40.5083 36.7322C40.3279 36.5354 40.0873 36.4505 39.8299 36.4505V37.1564ZM39.9879 37.2092C40.0265 37.2513 40.0385 37.2877 40.0353 37.3391L40.7398 37.3831C40.7551 37.137 40.6742 36.9132 40.5083 36.7322L39.9879 37.2092ZM40.0355 37.3359C40.0293 37.4227 40.0095 37.4661 39.9963 37.4859L40.5836 37.8775C40.6819 37.73 40.7272 37.5596 40.7396 37.3862L40.0355 37.3359ZM39.9906 37.4947C39.9845 37.5045 39.9687 37.5244 39.923 37.5473L40.2386 38.1786C40.3788 38.1085 40.5024 38.0077 40.5892 37.8688L39.9906 37.4947ZM39.9071 37.5557C39.5008 37.7854 39.0571 37.9809 38.5751 38.1415L38.7983 38.8112C39.3201 38.6373 39.8057 38.4238 40.2545 38.1702L39.9071 37.5557ZM38.5751 38.1415C38.1181 38.2938 37.5628 38.3744 36.9022 38.3744V39.0802C37.6172 39.0802 38.2515 38.9935 38.7983 38.8112L38.5751 38.1415Z" fill="white" mask="url(#path-4-outside-1_288_3394)"/>
<mask id="mask1_288_3394" style="mask-type:alpha" maskUnits="userSpaceOnUse" x="0" y="0" width="48" height="55">
<path d="M44.1176 54.3529H3.88235C1.73819 54.3529 0 52.6147 0 50.4706V3.88235C0 1.73819 1.73819 0 3.88235 0H30L48 18V50.4706C48 52.6147 46.2618 54.3529 44.1176 54.3529Z" fill="url(#paint2_linear_288_3394)"/>
</mask>
<g mask="url(#mask1_288_3394)">
<ellipse opacity="0.05" cx="-2.55882" cy="-2.20614" rx="39.4412" ry="37.8529" fill="url(#paint3_linear_288_3394)"/>
<ellipse opacity="0.07" cx="-2.55842" cy="-2.20611" rx="24.7941" ry="23.7353" fill="url(#paint4_linear_288_3394)"/>
</g>
<g filter="url(#filter1_d_288_3394)">
<path d="M48 18H33.8824C31.7382 18 30 16.2618 30 14.1176V0L48 18Z" fill="url(#paint5_linear_288_3394)"/>
</g>
<g opacity="0.11">
<line x1="12.8818" y1="23.1174" x2="35.1171" y2="23.1174" stroke="white" stroke-width="2.11765"/>
<line x1="12.8818" y1="28.4114" x2="35.1171" y2="28.4114" stroke="white" stroke-width="2.11765"/>
<line x1="12.8818" y1="33.7058" x2="35.1171" y2="33.7058" stroke="white" stroke-width="2.11765"/>
<line x1="12.8818" y1="38.9998" x2="35.1171" y2="38.9998" stroke="white" stroke-width="2.11765"/>
<line x1="12.8818" y1="44.2937" x2="35.1171" y2="44.2937" stroke="white" stroke-width="2.11765"/>
</g>
</g>
<defs>
<filter id="filter0_f_288_3394" x="1.58835" y="19.4116" width="45.1768" height="28.5884" filterUnits="userSpaceOnUse" color-interpolation-filters="sRGB">
<feFlood flood-opacity="0" result="BackgroundImageFix"/>
<feBlend mode="normal" in="SourceGraphic" in2="BackgroundImageFix" result="shape"/>
<feGaussianBlur stdDeviation="3.44118" result="effect1_foregroundBlur_288_3394"/>
</filter>
<filter id="filter1_d_288_3394" x="25.9412" y="-4.23529" width="26.8235" height="26.8235" filterUnits="userSpaceOnUse" color-interpolation-filters="sRGB">
<feFlood flood-opacity="0" result="BackgroundImageFix"/>
<feColorMatrix in="SourceAlpha" type="matrix" values="0 0 0 0 0 0 0 0 0 0 0 0 0 0 0 0 0 0 127 0" result="hardAlpha"/>
<feOffset dx="0.352941" dy="0.176471"/>
<feGaussianBlur stdDeviation="2.20588"/>
<feColorMatrix type="matrix" values="0 0 0 0 0 0 0 0 0 0 0 0 0 0 0 0 0 0 0.33 0"/>
<feBlend mode="normal" in2="BackgroundImageFix" result="effect1_dropShadow_288_3394"/>
<feBlend mode="normal" in="SourceGraphic" in2="effect1_dropShadow_288_3394" result="shape"/>
</filter>
<linearGradient id="paint0_linear_288_3394" x1="24" y1="0" x2="24" y2="54.3529" gradientUnits="userSpaceOnUse">
<stop stop-color="#FF7979"/>
<stop offset="1" stop-color="#E85555"/>
</linearGradient>
<linearGradient id="paint1_linear_288_3394" x1="24" y1="0" x2="24" y2="54.3529" gradientUnits="userSpaceOnUse">
<stop stop-color="#6ABDF8"/>
<stop offset="1" stop-color="#008BD6"/>
</linearGradient>
<linearGradient id="paint2_linear_288_3394" x1="24" y1="0" x2="24" y2="54.3529" gradientUnits="userSpaceOnUse">
<stop stop-color="#6ABDF8"/>
<stop offset="1" stop-color="#008BD6"/>
</linearGradient>
<linearGradient id="paint3_linear_288_3394" x1="0.304892" y1="-0.905355" x2="12.2659" y2="30.8393" gradientUnits="userSpaceOnUse">
<stop stop-color="white" stop-opacity="0"/>
<stop offset="1" stop-color="white"/>
</linearGradient>
<linearGradient id="paint4_linear_288_3394" x1="-0.75819" y1="-1.39047" x2="6.72753" y2="18.5273" gradientUnits="userSpaceOnUse">
<stop stop-color="white" stop-opacity="0"/>
<stop offset="1" stop-color="white"/>
</linearGradient>
<linearGradient id="paint5_linear_288_3394" x1="39" y1="0" x2="39" y2="18" gradientUnits="userSpaceOnUse">
<stop stop-color="#009FE3"/>
<stop offset="1" stop-color="#0087C1"/>
</linearGradient>
</defs>
</svg>
