<svg width="32" height="32" viewBox="0 0 32 32" fill="none" xmlns="http://www.w3.org/2000/svg">
<path d="M13.3333 6.6665H5.33325" stroke="white" stroke-width="2" stroke-linecap="round"/>
<path d="M18.6665 6.6665H26.6665" stroke="white" stroke-width="2" stroke-linecap="round"/>
<path d="M21.3333 16H5.33325" stroke="white" stroke-width="2" stroke-linecap="round"/>
<path d="M10.6665 25.3335H26.6665" stroke="white" stroke-width="2" stroke-linecap="round"/>
<path d="M10.6666 25.3332C10.6666 23.8604 9.47268 22.6665 7.99992 22.6665C6.52716 22.6665 5.33325 23.8604 5.33325 25.3332C5.33325 26.806 6.52716 27.9998 7.99992 27.9998C9.47268 27.9998 10.6666 26.806 10.6666 25.3332Z" stroke="white" stroke-width="2" stroke-linecap="round"/>
<path d="M26.6666 16.0002C26.6666 14.5274 25.4727 13.3335 23.9999 13.3335C22.5271 13.3335 21.3333 14.5274 21.3333 16.0002C21.3333 17.473 22.5271 18.6668 23.9999 18.6668C25.4727 18.6668 26.6666 17.473 26.6666 16.0002Z" stroke="white" stroke-width="2" stroke-linecap="round"/>
<path d="M18.6666 6.66667C18.6666 5.19391 17.4727 4 15.9999 4C14.5271 4 13.3333 5.19391 13.3333 6.66667C13.3333 8.13943 14.5271 9.33333 15.9999 9.33333C17.4727 9.33333 18.6666 8.13943 18.6666 6.66667Z" stroke="white" stroke-width="2" stroke-linecap="round"/>
</svg>
