<svg width="48" height="55" viewBox="0 0 48 55" fill="none" xmlns="http://www.w3.org/2000/svg">
<mask id="mask0_288_3360" style="mask-type:alpha" maskUnits="userSpaceOnUse" x="0" y="0" width="48" height="55">
<path d="M44.1176 54.3534H3.88235C1.73819 54.3534 0 52.6152 0 50.4711V3.88284C0 1.73868 1.73819 0.000488281 3.88235 0.000488281H30L48 18.0005V50.4711C48 52.6152 46.2618 54.3534 44.1176 54.3534Z" fill="url(#paint0_linear_288_3360)"/>
</mask>
<g mask="url(#mask0_288_3360)">
<path d="M44.1176 54.3534H3.88235C1.73819 54.3534 0 52.6152 0 50.4711V3.88284C0 1.73868 1.73819 0.000488281 3.88235 0.000488281H30L48 18.0005V50.4711C48 52.6152 46.2618 54.3534 44.1176 54.3534Z" fill="url(#paint1_linear_288_3360)"/>
<path opacity="0.12" fill-rule="evenodd" clip-rule="evenodd" d="M35.1171 24.5298H12.8818V22.4121H35.1171V24.5298ZM35.1171 29.8239H12.8818V27.7062H35.1171V29.8239ZM12.8818 35.118H35.1171V33.0003H12.8818V35.118ZM35.1171 40.4121H12.8818V38.2945H35.1171V40.4121ZM12.8818 45.7062H35.1171V43.5886H12.8818V45.7062Z" fill="white"/>
<mask id="path-4-outside-1_288_3360" maskUnits="userSpaceOnUse" x="9" y="27.5889" width="31" height="12" fill="black">
<rect fill="white" x="9" y="27.5889" width="31" height="12"/>
<path d="M10.9796 38.6586C10.8031 38.6586 10.6544 38.5982 10.5335 38.4773C10.4127 38.3565 10.3523 38.2078 10.3523 38.0312V29.4992C10.3523 29.3226 10.4127 29.1739 10.5335 29.0531C10.6544 28.923 10.8031 28.8579 10.9796 28.8579H14.1582C14.8646 28.8579 15.4548 28.9509 15.9288 29.1367C16.4121 29.3133 16.7931 29.555 17.0719 29.8617C17.3601 30.1591 17.5645 30.489 17.6854 30.8515C17.8155 31.214 17.8805 31.5811 17.8805 31.9529C17.8805 32.3246 17.8155 32.6917 17.6854 33.0542C17.5645 33.4167 17.3601 33.7513 17.0719 34.058C16.7931 34.3554 16.4121 34.597 15.9288 34.7829C15.4548 34.9595 14.8646 35.0478 14.1582 35.0478H11.6209V38.0312C11.6209 38.2078 11.5559 38.3565 11.4258 38.4773C11.3049 38.5982 11.1562 38.6586 10.9796 38.6586ZM11.6209 33.8489H14.0328C14.7298 33.8489 15.2642 33.7559 15.636 33.57C16.0078 33.3749 16.2634 33.1332 16.4028 32.8451C16.5422 32.5477 16.6119 32.2503 16.6119 31.9529C16.6119 31.6462 16.5422 31.3487 16.4028 31.0606C16.2634 30.7725 16.0078 30.5355 15.636 30.3496C15.2642 30.1545 14.7298 30.0569 14.0328 30.0569H11.6209V33.8489ZM21.3223 38.5889C21.1457 38.5889 20.997 38.5285 20.8761 38.4076C20.7553 38.2868 20.6949 38.1381 20.6949 37.9615V29.4992C20.6949 29.3226 20.7553 29.1739 20.8761 29.0531C20.997 28.923 21.1457 28.8579 21.3223 28.8579H24.1244C24.9609 28.8579 25.6858 29.002 26.2993 29.2901C26.9127 29.5689 27.4238 29.9453 27.8328 30.4193C28.2417 30.884 28.5438 31.4045 28.739 31.9807C28.9434 32.557 29.0457 33.1379 29.0457 33.7234C29.0457 34.3089 28.9434 34.8898 28.739 35.466C28.5438 36.0423 28.2417 36.5674 27.8328 37.0414C27.4238 37.5061 26.9127 37.8825 26.2993 38.1706C25.6858 38.4495 24.9609 38.5889 24.1244 38.5889H21.3223ZM21.9636 37.4039H23.9711C24.7518 37.4039 25.4256 37.2505 25.9926 36.9438C26.5688 36.6278 27.0103 36.1956 27.317 35.6473C27.633 35.0896 27.791 34.4483 27.791 33.7234C27.791 32.9985 27.633 32.3618 27.317 31.8135C27.0103 31.2558 26.5688 30.8236 25.9926 30.5169C25.4256 30.2009 24.7518 30.0429 23.9711 30.0429H21.9636V37.4039ZM32.7676 38.6586C32.591 38.6586 32.4423 38.5982 32.3215 38.4773C32.2007 38.3565 32.1403 38.2078 32.1403 38.0312V29.4992C32.1403 29.3226 32.2007 29.1739 32.3215 29.0531C32.4423 28.923 32.591 28.8579 32.7676 28.8579H38.1908C38.358 28.8579 38.4975 28.9183 38.609 29.0392C38.7298 29.1507 38.7902 29.2901 38.7902 29.4574C38.7902 29.6247 38.7298 29.7641 38.609 29.8756C38.4975 29.9872 38.358 30.0429 38.1908 30.0429H33.4089V33.1239H37.7028C37.8701 33.1239 38.0095 33.1843 38.121 33.3052C38.2419 33.4167 38.3023 33.5561 38.3023 33.7234C38.3023 33.8907 38.2419 34.0301 38.121 34.1416C38.0095 34.2532 37.8701 34.3089 37.7028 34.3089H33.4089V38.0312C33.4089 38.2078 33.3439 38.3565 33.2138 38.4773C33.0929 38.5982 32.9442 38.6586 32.7676 38.6586Z"/>
</mask>
<path d="M10.9796 38.6586C10.8031 38.6586 10.6544 38.5982 10.5335 38.4773C10.4127 38.3565 10.3523 38.2078 10.3523 38.0312V29.4992C10.3523 29.3226 10.4127 29.1739 10.5335 29.0531C10.6544 28.923 10.8031 28.8579 10.9796 28.8579H14.1582C14.8646 28.8579 15.4548 28.9509 15.9288 29.1367C16.4121 29.3133 16.7931 29.555 17.0719 29.8617C17.3601 30.1591 17.5645 30.489 17.6854 30.8515C17.8155 31.214 17.8805 31.5811 17.8805 31.9529C17.8805 32.3246 17.8155 32.6917 17.6854 33.0542C17.5645 33.4167 17.3601 33.7513 17.0719 34.058C16.7931 34.3554 16.4121 34.597 15.9288 34.7829C15.4548 34.9595 14.8646 35.0478 14.1582 35.0478H11.6209V38.0312C11.6209 38.2078 11.5559 38.3565 11.4258 38.4773C11.3049 38.5982 11.1562 38.6586 10.9796 38.6586ZM11.6209 33.8489H14.0328C14.7298 33.8489 15.2642 33.7559 15.636 33.57C16.0078 33.3749 16.2634 33.1332 16.4028 32.8451C16.5422 32.5477 16.6119 32.2503 16.6119 31.9529C16.6119 31.6462 16.5422 31.3487 16.4028 31.0606C16.2634 30.7725 16.0078 30.5355 15.636 30.3496C15.2642 30.1545 14.7298 30.0569 14.0328 30.0569H11.6209V33.8489ZM21.3223 38.5889C21.1457 38.5889 20.997 38.5285 20.8761 38.4076C20.7553 38.2868 20.6949 38.1381 20.6949 37.9615V29.4992C20.6949 29.3226 20.7553 29.1739 20.8761 29.0531C20.997 28.923 21.1457 28.8579 21.3223 28.8579H24.1244C24.9609 28.8579 25.6858 29.002 26.2993 29.2901C26.9127 29.5689 27.4238 29.9453 27.8328 30.4193C28.2417 30.884 28.5438 31.4045 28.739 31.9807C28.9434 32.557 29.0457 33.1379 29.0457 33.7234C29.0457 34.3089 28.9434 34.8898 28.739 35.466C28.5438 36.0423 28.2417 36.5674 27.8328 37.0414C27.4238 37.5061 26.9127 37.8825 26.2993 38.1706C25.6858 38.4495 24.9609 38.5889 24.1244 38.5889H21.3223ZM21.9636 37.4039H23.9711C24.7518 37.4039 25.4256 37.2505 25.9926 36.9438C26.5688 36.6278 27.0103 36.1956 27.317 35.6473C27.633 35.0896 27.791 34.4483 27.791 33.7234C27.791 32.9985 27.633 32.3618 27.317 31.8135C27.0103 31.2558 26.5688 30.8236 25.9926 30.5169C25.4256 30.2009 24.7518 30.0429 23.9711 30.0429H21.9636V37.4039ZM32.7676 38.6586C32.591 38.6586 32.4423 38.5982 32.3215 38.4773C32.2007 38.3565 32.1403 38.2078 32.1403 38.0312V29.4992C32.1403 29.3226 32.2007 29.1739 32.3215 29.0531C32.4423 28.923 32.591 28.8579 32.7676 28.8579H38.1908C38.358 28.8579 38.4975 28.9183 38.609 29.0392C38.7298 29.1507 38.7902 29.2901 38.7902 29.4574C38.7902 29.6247 38.7298 29.7641 38.609 29.8756C38.4975 29.9872 38.358 30.0429 38.1908 30.0429H33.4089V33.1239H37.7028C37.8701 33.1239 38.0095 33.1843 38.121 33.3052C38.2419 33.4167 38.3023 33.5561 38.3023 33.7234C38.3023 33.8907 38.2419 34.0301 38.121 34.1416C38.0095 34.2532 37.8701 34.3089 37.7028 34.3089H33.4089V38.0312C33.4089 38.2078 33.3439 38.3565 33.2138 38.4773C33.0929 38.5982 32.9442 38.6586 32.7676 38.6586Z" fill="white"/>
<path d="M10.5335 38.4773L10.7831 38.2278H10.7831L10.5335 38.4773ZM10.5335 29.0531L10.7833 29.3028L10.7922 29.2933L10.5335 29.0531ZM15.9288 29.1367L15.7999 29.4654L15.8076 29.4683L15.9288 29.1367ZM17.0719 29.8617L16.8107 30.0992L16.8184 30.1073L17.0719 29.8617ZM17.6854 30.8515L17.3504 30.9632L17.3532 30.9708L17.6854 30.8515ZM17.6854 33.0542L17.3531 32.9349L17.3505 32.9426L17.6854 33.0542ZM17.0719 34.058L16.8147 33.8163L16.8145 33.8166L17.0719 34.058ZM15.9288 34.7829L16.052 35.1137L16.0555 35.1123L15.9288 34.7829ZM11.6209 35.0478V34.6949H11.268V35.0478H11.6209ZM11.4258 38.4773L11.1854 38.2185L11.1762 38.2278L11.4258 38.4773ZM11.6209 33.8489H11.268V34.2018H11.6209V33.8489ZM15.636 33.57L15.7939 33.8858L15.8001 33.8825L15.636 33.57ZM16.4028 32.8451L16.7205 32.9988L16.7223 32.9949L16.4028 32.8451ZM15.636 30.3496L15.4719 30.6622L15.4782 30.6653L15.636 30.3496ZM11.6209 30.0569V29.7039H11.268V30.0569H11.6209ZM10.9796 38.3056C10.8932 38.3056 10.8353 38.28 10.7831 38.2278L10.284 38.7269C10.4734 38.9164 10.713 39.0115 10.9796 39.0115V38.3056ZM10.7831 38.2278C10.7309 38.1756 10.7052 38.1177 10.7052 38.0312H9.99935C9.99935 38.2979 10.0945 38.5375 10.284 38.7269L10.7831 38.2278ZM10.7052 38.0312V29.4992H9.99935V38.0312H10.7052ZM10.7052 29.4992C10.7052 29.4127 10.7309 29.3549 10.7831 29.3027L10.284 28.8035C10.0945 28.993 9.99935 29.2325 9.99935 29.4992H10.7052ZM10.7922 29.2933C10.8466 29.2346 10.9018 29.2109 10.9796 29.2109V28.505C10.7043 28.505 10.4621 28.6114 10.2749 28.8129L10.7922 29.2933ZM10.9796 29.2109H14.1582V28.505H10.9796V29.2109ZM14.1582 29.2109C14.8364 29.2109 15.3795 29.3005 15.7999 29.4653L16.0576 28.8082C15.53 28.6013 14.8928 28.505 14.1582 28.505V29.2109ZM15.8076 29.4683C16.25 29.6299 16.5785 29.8436 16.8108 30.0991L17.3331 29.6243C17.0077 29.2664 16.5741 28.9968 16.0499 28.8052L15.8076 29.4683ZM16.8184 30.1073C17.0729 30.3699 17.2478 30.6549 17.3505 30.9631L18.0202 30.7399C17.8813 30.3231 17.6472 29.9483 17.3254 29.6161L16.8184 30.1073ZM17.3532 30.9708C17.4701 31.2964 17.5276 31.6232 17.5276 31.9529H18.2335C18.2335 31.539 18.1609 31.1316 18.0175 30.7323L17.3532 30.9708ZM17.5276 31.9529C17.5276 32.2825 17.4701 32.6094 17.3532 32.935L18.0175 33.1735C18.1609 32.7741 18.2335 32.3667 18.2335 31.9529H17.5276ZM17.3505 32.9426C17.2474 33.2519 17.0714 33.543 16.8147 33.8163L17.3292 34.2996C17.6487 33.9595 17.8816 33.5815 18.0202 33.1658L17.3505 32.9426ZM16.8145 33.8166C16.5805 34.0661 16.2487 34.2817 15.8021 34.4535L16.0555 35.1123C16.5754 34.9124 17.0057 34.6446 17.3294 34.2994L16.8145 33.8166ZM15.8056 34.4522C15.3832 34.6095 14.8379 34.6949 14.1582 34.6949V35.4007C14.8912 35.4007 15.5263 35.3095 16.052 35.1137L15.8056 34.4522ZM14.1582 34.6949H11.6209V35.4007H14.1582V34.6949ZM11.268 35.0478V38.0312H11.9739V35.0478H11.268ZM11.268 38.0312C11.268 38.1091 11.2443 38.1642 11.1856 38.2187L11.6659 38.736C11.8675 38.5488 11.9739 38.3066 11.9739 38.0312H11.268ZM11.1762 38.2278C11.124 38.28 11.0661 38.3056 10.9796 38.3056V39.0115C11.2463 39.0115 11.4859 38.9164 11.6753 38.7269L11.1762 38.2278ZM11.6209 34.2018H14.0328V33.4959H11.6209V34.2018ZM14.0328 34.2018C14.7522 34.2018 15.3505 34.1074 15.7938 33.8857L15.4782 33.2544C15.1779 33.4045 14.7075 33.4959 14.0328 33.4959V34.2018ZM15.8001 33.8825C16.2179 33.6632 16.5392 33.3734 16.7205 32.9988L16.0851 32.6914C15.9875 32.893 15.7976 33.0866 15.4719 33.2576L15.8001 33.8825ZM16.7223 32.9949C16.8814 32.6556 16.9648 32.3073 16.9648 31.9529H16.2589C16.2589 32.1933 16.2029 32.4398 16.0832 32.6953L16.7223 32.9949ZM16.9648 31.9529C16.9648 31.5906 16.882 31.2408 16.7205 30.9069L16.0851 31.2144C16.2023 31.4567 16.2589 31.7017 16.2589 31.9529H16.9648ZM16.7205 30.9069C16.5382 30.5301 16.2144 30.2442 15.7938 30.034L15.4782 30.6653C15.8011 30.8268 15.9885 31.0149 16.0851 31.2144L16.7205 30.9069ZM15.8001 30.0371C15.3547 29.8033 14.7537 29.7039 14.0328 29.7039V30.4098C14.7059 30.4098 15.1737 30.5056 15.4719 30.6621L15.8001 30.0371ZM14.0328 29.7039H11.6209V30.4098H14.0328V29.7039ZM11.268 30.0569V33.8489H11.9739V30.0569H11.268ZM20.8761 38.4076L21.1257 38.1581L20.8761 38.4076ZM20.8761 29.0531L21.1259 29.3028L21.1348 29.2933L20.8761 29.0531ZM26.2993 29.2901L26.1492 29.6096L26.1532 29.6114L26.2993 29.2901ZM27.8328 30.4193L27.5655 30.6499L27.5678 30.6525L27.8328 30.4193ZM28.739 31.9807L28.4046 32.094L28.4063 32.0988L28.739 31.9807ZM28.739 35.466L28.4063 35.348L28.4047 35.3528L28.739 35.466ZM27.8328 37.0414L28.0978 37.2746L28.1 37.2719L27.8328 37.0414ZM26.2993 38.1706L26.4453 38.492L26.4493 38.4901L26.2993 38.1706ZM21.9636 37.4039H21.6106V37.7568H21.9636V37.4039ZM25.9926 36.9438L26.1605 37.2542L26.1623 37.2533L25.9926 36.9438ZM27.317 35.6473L27.0099 35.4733L27.0089 35.475L27.317 35.6473ZM27.317 31.8135L27.0077 31.9836L27.0112 31.9897L27.317 31.8135ZM25.9926 30.5169L25.8207 30.8253L25.8267 30.8285L25.9926 30.5169ZM21.9636 30.0429V29.69H21.6106V30.0429H21.9636ZM21.3223 38.2359C21.2358 38.2359 21.1779 38.2103 21.1257 38.1581L20.6266 38.6572C20.816 38.8466 21.0556 38.9418 21.3223 38.9418V38.2359ZM21.1257 38.1581C21.0735 38.1059 21.0478 38.048 21.0478 37.9615H20.342C20.342 38.2282 20.4371 38.4678 20.6266 38.6572L21.1257 38.1581ZM21.0478 37.9615V29.4992H20.342V37.9615H21.0478ZM21.0478 29.4992C21.0478 29.4127 21.0735 29.3549 21.1257 29.3027L20.6266 28.8035C20.4371 28.993 20.342 29.2325 20.342 29.4992H21.0478ZM21.1348 29.2933C21.1892 29.2346 21.2444 29.2109 21.3223 29.2109V28.505C21.0469 28.505 20.8047 28.6114 20.6175 28.8129L21.1348 29.2933ZM21.3223 29.2109H24.1244V28.505H21.3223V29.2109ZM24.1244 29.2109C24.9209 29.2109 25.5924 29.348 26.1492 29.6096L26.4493 28.9706C25.7793 28.6559 25.0009 28.505 24.1244 28.505V29.2109ZM26.1532 29.6114C26.7237 29.8707 27.1925 30.2174 27.5656 30.6499L28.1 30.1888C27.6552 29.6732 27.1016 29.2671 26.4453 28.9688L26.1532 29.6114ZM27.5678 30.6525C27.9465 31.0828 28.2247 31.5627 28.4047 32.094L29.0732 31.8675C28.8628 31.2463 28.5369 30.6853 28.0977 30.1862L27.5678 30.6525ZM28.4063 32.0988C28.598 32.6388 28.6927 33.1798 28.6927 33.7234H29.3986C29.3986 33.0959 29.2889 32.4752 29.0716 31.8627L28.4063 32.0988ZM28.6927 33.7234C28.6927 34.267 28.598 34.808 28.4063 35.348L29.0716 35.5841C29.2889 34.9716 29.3986 34.3509 29.3986 33.7234H28.6927ZM28.4047 35.3528C28.2245 35.8847 27.9457 36.3702 27.5656 36.8108L28.1 37.2719C28.5378 36.7645 28.8631 36.1998 29.0732 35.5793L28.4047 35.3528ZM27.5678 36.8082C27.1938 37.2333 26.723 37.5817 26.1492 37.8512L26.4493 38.4901C27.1023 38.1834 27.6539 37.7789 28.0977 37.2746L27.5678 36.8082ZM26.1532 37.8493C25.5953 38.1029 24.9224 38.2359 24.1244 38.2359V38.9418C24.9995 38.9418 25.7764 38.796 26.4453 38.4919L26.1532 37.8493ZM24.1244 38.2359H21.3223V38.9418H24.1244V38.2359ZM21.9636 37.7568H23.9711V37.0509H21.9636V37.7568ZM23.9711 37.7568C24.7981 37.7568 25.5321 37.5942 26.1605 37.2542L25.8246 36.6334C25.3191 36.9069 24.7054 37.0509 23.9711 37.0509V37.7568ZM26.1623 37.2533C26.7938 36.907 27.2844 36.4284 27.625 35.8196L27.0089 35.475C26.7361 35.9628 26.3438 36.3487 25.8228 36.6343L26.1623 37.2533ZM27.624 35.8213C27.9739 35.2039 28.1439 34.5012 28.1439 33.7234H27.438C27.438 34.3955 27.2921 34.9753 27.0099 35.4733L27.624 35.8213ZM28.1439 33.7234C28.1439 32.9457 27.9739 32.2466 27.6228 31.6372L27.0112 31.9897C27.292 32.477 27.438 33.0512 27.438 33.7234H28.1439ZM27.6262 31.6434C27.2856 31.024 26.7935 30.5434 26.1584 30.2054L25.8267 30.8285C26.3441 31.1038 26.7349 31.4876 27.0077 31.9835L27.6262 31.6434ZM26.1644 30.2086C25.5352 29.858 24.7998 29.69 23.9711 29.69V30.3959C24.7038 30.3959 25.316 30.5439 25.8207 30.8252L26.1644 30.2086ZM23.9711 29.69H21.9636V30.3959H23.9711V29.69ZM21.6106 30.0429V37.4039H22.3165V30.0429H21.6106ZM32.3215 38.4773L32.5711 38.2278L32.3215 38.4773ZM32.3215 29.0531L32.5713 29.3028L32.5802 29.2933L32.3215 29.0531ZM38.609 29.0392L38.3496 29.2786L38.3592 29.2889L38.3696 29.2985L38.609 29.0392ZM38.609 29.8756L38.3694 29.6161L38.3594 29.6261L38.609 29.8756ZM33.4089 30.0429V29.69H33.056V30.0429H33.4089ZM33.4089 33.1239H33.056V33.4769H33.4089V33.1239ZM38.121 33.3052L37.8617 33.5446L37.8713 33.5549L37.8817 33.5645L38.121 33.3052ZM38.121 34.1416L37.8815 33.8821L37.8715 33.8921L38.121 34.1416ZM33.4089 34.3089V33.956H33.056V34.3089H33.4089ZM33.2138 38.4773L32.9734 38.2185L32.9642 38.2278L33.2138 38.4773ZM32.7676 38.3056C32.6812 38.3056 32.6233 38.28 32.5711 38.2278L32.072 38.7269C32.2614 38.9164 32.5009 39.0115 32.7676 39.0115V38.3056ZM32.5711 38.2278C32.5189 38.1756 32.4932 38.1177 32.4932 38.0312H31.7873C31.7873 38.2979 31.8825 38.5375 32.072 38.7269L32.5711 38.2278ZM32.4932 38.0312V29.4992H31.7873V38.0312H32.4932ZM32.4932 29.4992C32.4932 29.4127 32.5189 29.3549 32.5711 29.3027L32.072 28.8035C31.8825 28.993 31.7873 29.2325 31.7873 29.4992H32.4932ZM32.5802 29.2933C32.6346 29.2346 32.6898 29.2109 32.7676 29.2109V28.505C32.4923 28.505 32.2501 28.6114 32.0629 28.8129L32.5802 29.2933ZM32.7676 29.2109H38.1908V28.505H32.7676V29.2109ZM38.1908 29.2109C38.2615 29.2109 38.3062 29.2315 38.3496 29.2786L38.8683 28.7998C38.6887 28.6051 38.4546 28.505 38.1908 28.505V29.2109ZM38.3696 29.2985C38.4166 29.3419 38.4373 29.3867 38.4373 29.4574H39.1432C39.1432 29.1935 39.043 28.9595 38.8484 28.7798L38.3696 29.2985ZM38.4373 29.4574C38.4373 29.5281 38.4166 29.5729 38.3696 29.6163L38.8484 30.135C39.043 29.9553 39.1432 29.7212 39.1432 29.4574H38.4373ZM38.3594 29.6261C38.3184 29.6671 38.2707 29.69 38.1908 29.69V30.3959C38.4454 30.3959 38.6765 30.3072 38.8586 30.1252L38.3594 29.6261ZM38.1908 29.69H33.4089V30.3959H38.1908V29.69ZM33.056 30.0429V33.1239H33.7619V30.0429H33.056ZM33.4089 33.4769H37.7028V32.771H33.4089V33.4769ZM37.7028 33.4769C37.7736 33.4769 37.8183 33.4975 37.8617 33.5446L38.3804 33.0658C38.2007 32.8711 37.9667 32.771 37.7028 32.771V33.4769ZM37.8817 33.5645C37.9287 33.6079 37.9493 33.6527 37.9493 33.7234H38.6552C38.6552 33.4595 38.5551 33.2255 38.3604 33.0458L37.8817 33.5645ZM37.9493 33.7234C37.9493 33.7941 37.9287 33.8389 37.8817 33.8823L38.3604 34.401C38.5551 34.2213 38.6552 33.9872 38.6552 33.7234H37.9493ZM37.8715 33.8921C37.8305 33.9331 37.7828 33.956 37.7028 33.956V34.6619C37.9574 34.6619 38.1886 34.5732 38.3706 34.3912L37.8715 33.8921ZM37.7028 33.956H33.4089V34.6619H37.7028V33.956ZM33.056 34.3089V38.0312H33.7619V34.3089H33.056ZM33.056 38.0312C33.056 38.1091 33.0322 38.1642 32.9736 38.2187L33.4539 38.736C33.6555 38.5488 33.7619 38.3066 33.7619 38.0312H33.056ZM32.9642 38.2278C32.912 38.28 32.8541 38.3056 32.7676 38.3056V39.0115C33.0343 39.0115 33.2739 38.9164 33.4633 38.7269L32.9642 38.2278Z" fill="white" mask="url(#path-4-outside-1_288_3360)"/>
<mask id="mask1_288_3360" style="mask-type:alpha" maskUnits="userSpaceOnUse" x="0" y="0" width="48" height="55">
<path d="M44.1176 54.3539H3.88235C1.73819 54.3539 0 52.6157 0 50.4716V3.88333C0 1.73917 1.73819 0.000976562 3.88235 0.000976562H30L48 18.001V50.4716C48 52.6157 46.2618 54.3539 44.1176 54.3539Z" fill="url(#paint2_linear_288_3360)"/>
</mask>
<g mask="url(#mask1_288_3360)">
<ellipse opacity="0.08" cx="-4.85277" cy="-1.14608" rx="39.4412" ry="37.8529" fill="url(#paint3_linear_288_3360)"/>
<ellipse opacity="0.08" cx="-4.85334" cy="-1.14605" rx="24.7941" ry="23.7353" fill="url(#paint4_linear_288_3360)"/>
</g>
<g filter="url(#filter0_d_288_3360)">
<path d="M48 18.0005H33.8824C31.7382 18.0005 30 16.2623 30 14.1181V0.000488281L48 18.0005Z" fill="url(#paint5_linear_288_3360)"/>
</g>
</g>
<defs>
<filter id="filter0_d_288_3360" x="25.9412" y="-4.23481" width="26.8235" height="26.8235" filterUnits="userSpaceOnUse" color-interpolation-filters="sRGB">
<feFlood flood-opacity="0" result="BackgroundImageFix"/>
<feColorMatrix in="SourceAlpha" type="matrix" values="0 0 0 0 0 0 0 0 0 0 0 0 0 0 0 0 0 0 127 0" result="hardAlpha"/>
<feOffset dx="0.352941" dy="0.176471"/>
<feGaussianBlur stdDeviation="2.20588"/>
<feColorMatrix type="matrix" values="0 0 0 0 0 0 0 0 0 0 0 0 0 0 0 0 0 0 0.33 0"/>
<feBlend mode="normal" in2="BackgroundImageFix" result="effect1_dropShadow_288_3360"/>
<feBlend mode="normal" in="SourceGraphic" in2="effect1_dropShadow_288_3360" result="shape"/>
</filter>
<linearGradient id="paint0_linear_288_3360" x1="24" y1="0.000488281" x2="24" y2="54.3534" gradientUnits="userSpaceOnUse">
<stop stop-color="#FF7979"/>
<stop offset="1" stop-color="#E85555"/>
</linearGradient>
<linearGradient id="paint1_linear_288_3360" x1="24" y1="0.000488281" x2="24" y2="54.3534" gradientUnits="userSpaceOnUse">
<stop stop-color="#FF7981"/>
<stop offset="1" stop-color="#E85567"/>
</linearGradient>
<linearGradient id="paint2_linear_288_3360" x1="24" y1="0.000976562" x2="24" y2="54.3539" gradientUnits="userSpaceOnUse">
<stop stop-color="#FF7981"/>
<stop offset="1" stop-color="#E85567"/>
</linearGradient>
<linearGradient id="paint3_linear_288_3360" x1="-1.98905" y1="0.154704" x2="9.97198" y2="31.8994" gradientUnits="userSpaceOnUse">
<stop stop-color="white" stop-opacity="0"/>
<stop offset="1" stop-color="white"/>
</linearGradient>
<linearGradient id="paint4_linear_288_3360" x1="-3.05311" y1="-0.330408" x2="4.43261" y2="19.5873" gradientUnits="userSpaceOnUse">
<stop stop-color="white" stop-opacity="0"/>
<stop offset="1" stop-color="white"/>
</linearGradient>
<linearGradient id="paint5_linear_288_3360" x1="39" y1="0.000488281" x2="39" y2="18.0005" gradientUnits="userSpaceOnUse">
<stop stop-color="#D03954"/>
<stop offset="1" stop-color="#C02A3C"/>
</linearGradient>
</defs>
</svg>
