<svg width="48" height="55" viewBox="0 0 48 55" fill="none" xmlns="http://www.w3.org/2000/svg">
<mask id="mask0_288_3376" style="mask-type:alpha" maskUnits="userSpaceOnUse" x="0" y="0" width="48" height="55">
<path d="M44.1176 54.3534H3.88235C1.73819 54.3534 0 52.6152 0 50.4711V3.88284C0 1.73868 1.73819 0.000488281 3.88235 0.000488281H30L48 18.0005V50.4711C48 52.6152 46.2618 54.3534 44.1176 54.3534Z" fill="url(#paint0_linear_288_3376)"/>
</mask>
<g mask="url(#mask0_288_3376)">
<path d="M44.1176 54.3534H3.88235C1.73819 54.3534 0 52.6152 0 50.4711V3.88284C0 1.73868 1.73819 0.000488281 3.88235 0.000488281H30L48 18.0005V50.4711C48 52.6152 46.2618 54.3534 44.1176 54.3534Z" fill="url(#paint1_linear_288_3376)"/>
<g opacity="0.23" filter="url(#filter0_f_288_3376)">
<rect x="2.64746" y="26.2944" width="43.0588" height="14.8235" fill="#E32E06" style="mix-blend-mode:darken"/>
</g>
<path opacity="0.12" fill-rule="evenodd" clip-rule="evenodd" d="M23.9986 39.0007C30.4311 39.0007 35.6457 33.7861 35.6457 27.3536C35.6457 20.9211 30.4311 15.7065 23.9986 15.7065C17.5661 15.7065 12.3516 20.9211 12.3516 27.3536C12.3516 33.7861 17.5661 39.0007 23.9986 39.0007ZM23.9986 36.6458C18.8667 36.6458 14.7064 32.4856 14.7064 27.3536C14.7064 22.6424 18.2125 18.75 22.7578 18.1435V26.1106V28.44H25.0872H33.228C32.69 33.0601 28.7631 36.6458 23.9986 36.6458ZM25.0872 18.1245V26.1106H33.2084C32.6484 21.9216 29.2975 18.6158 25.0872 18.1245ZM35.1168 44.2947H12.8815V42.177H35.1168V44.2947ZM35.1168 49.5888H12.8815V47.4711H35.1168V49.5888Z" fill="white"/>
<mask id="path-5-outside-1_288_3376" maskUnits="userSpaceOnUse" x="10.3525" y="27.5889" width="29" height="12" fill="black">
<rect fill="white" x="10.3525" y="27.5889" width="29" height="12"/>
<path d="M11.7419 38.6586C11.5653 38.6586 11.4166 38.5982 11.2958 38.4773C11.1749 38.3565 11.1145 38.2078 11.1145 38.0312V29.4992C11.1145 29.3226 11.1749 29.1739 11.2958 29.0531C11.4166 28.923 11.5653 28.8579 11.7419 28.8579H14.9205C15.6268 28.8579 16.217 28.9509 16.691 29.1367C17.1743 29.3133 17.5553 29.555 17.8342 29.8617C18.1223 30.1591 18.3268 30.489 18.4476 30.8515C18.5777 31.214 18.6428 31.5811 18.6428 31.9529C18.6428 32.3246 18.5777 32.6917 18.4476 33.0542C18.3268 33.4167 18.1223 33.7513 17.8342 34.058C17.5553 34.3554 17.1743 34.597 16.691 34.7829C16.217 34.9595 15.6268 35.0478 14.9205 35.0478H12.3832V38.0312C12.3832 38.2078 12.3181 38.3565 12.188 38.4773C12.0672 38.5982 11.9185 38.6586 11.7419 38.6586ZM12.3832 33.8489H14.795C15.4921 33.8489 16.0265 33.7559 16.3982 33.57C16.77 33.3749 17.0256 33.1332 17.165 32.8451C17.3044 32.5477 17.3741 32.2503 17.3741 31.9529C17.3741 31.6462 17.3044 31.3487 17.165 31.0606C17.0256 30.7725 16.77 30.5355 16.3982 30.3496C16.0265 30.1545 15.4921 30.0569 14.795 30.0569H12.3832V33.8489ZM22.0845 38.6586C21.9079 38.6586 21.7592 38.5982 21.6384 38.4773C21.5175 38.3565 21.4571 38.2078 21.4571 38.0312V29.4992C21.4571 29.3226 21.5175 29.1739 21.6384 29.0531C21.7592 28.923 21.9079 28.8579 22.0845 28.8579H25.2631C25.9694 28.8579 26.5596 28.9509 27.0336 29.1367C27.5169 29.3133 27.898 29.555 28.1768 29.8617C28.4649 30.1591 28.6694 30.489 28.7902 30.8515C28.9203 31.214 28.9854 31.5811 28.9854 31.9529C28.9854 32.3246 28.9203 32.6917 28.7902 33.0542C28.6694 33.4167 28.4649 33.7513 28.1768 34.058C27.898 34.3554 27.5169 34.597 27.0336 34.7829C26.5596 34.9595 25.9694 35.0478 25.2631 35.0478H22.7258V38.0312C22.7258 38.2078 22.6607 38.3565 22.5306 38.4773C22.4098 38.5982 22.2611 38.6586 22.0845 38.6586ZM22.7258 33.8489H25.1376C25.8347 33.8489 26.3691 33.7559 26.7408 33.57C27.1126 33.3749 27.3682 33.1332 27.5076 32.8451C27.647 32.5477 27.7167 32.2503 27.7167 31.9529C27.7167 31.6462 27.647 31.3487 27.5076 31.0606C27.3682 30.7725 27.1126 30.5355 26.7408 30.3496C26.3691 30.1545 25.8347 30.0569 25.1376 30.0569H22.7258V33.8489ZM34.6856 38.6586C34.509 38.6586 34.3603 38.5982 34.2394 38.4773C34.1186 38.3565 34.0582 38.2078 34.0582 38.0312V30.0429H31.2142C31.0469 30.0429 30.9075 29.9872 30.796 29.8756C30.6844 29.7641 30.6287 29.6247 30.6287 29.4574C30.6287 29.2901 30.6844 29.1507 30.796 29.0392C30.9075 28.9183 31.0469 28.8579 31.2142 28.8579H38.1569C38.3242 28.8579 38.4636 28.9183 38.5752 29.0392C38.696 29.1507 38.7564 29.2901 38.7564 29.4574C38.7564 29.6247 38.696 29.7641 38.5752 29.8756C38.4636 29.9872 38.3242 30.0429 38.1569 30.0429H35.3269V38.0312C35.3269 38.2078 35.2618 38.3565 35.1317 38.4773C35.0109 38.5982 34.8622 38.6586 34.6856 38.6586Z"/>
</mask>
<path d="M11.7419 38.6586C11.5653 38.6586 11.4166 38.5982 11.2958 38.4773C11.1749 38.3565 11.1145 38.2078 11.1145 38.0312V29.4992C11.1145 29.3226 11.1749 29.1739 11.2958 29.0531C11.4166 28.923 11.5653 28.8579 11.7419 28.8579H14.9205C15.6268 28.8579 16.217 28.9509 16.691 29.1367C17.1743 29.3133 17.5553 29.555 17.8342 29.8617C18.1223 30.1591 18.3268 30.489 18.4476 30.8515C18.5777 31.214 18.6428 31.5811 18.6428 31.9529C18.6428 32.3246 18.5777 32.6917 18.4476 33.0542C18.3268 33.4167 18.1223 33.7513 17.8342 34.058C17.5553 34.3554 17.1743 34.597 16.691 34.7829C16.217 34.9595 15.6268 35.0478 14.9205 35.0478H12.3832V38.0312C12.3832 38.2078 12.3181 38.3565 12.188 38.4773C12.0672 38.5982 11.9185 38.6586 11.7419 38.6586ZM12.3832 33.8489H14.795C15.4921 33.8489 16.0265 33.7559 16.3982 33.57C16.77 33.3749 17.0256 33.1332 17.165 32.8451C17.3044 32.5477 17.3741 32.2503 17.3741 31.9529C17.3741 31.6462 17.3044 31.3487 17.165 31.0606C17.0256 30.7725 16.77 30.5355 16.3982 30.3496C16.0265 30.1545 15.4921 30.0569 14.795 30.0569H12.3832V33.8489ZM22.0845 38.6586C21.9079 38.6586 21.7592 38.5982 21.6384 38.4773C21.5175 38.3565 21.4571 38.2078 21.4571 38.0312V29.4992C21.4571 29.3226 21.5175 29.1739 21.6384 29.0531C21.7592 28.923 21.9079 28.8579 22.0845 28.8579H25.2631C25.9694 28.8579 26.5596 28.9509 27.0336 29.1367C27.5169 29.3133 27.898 29.555 28.1768 29.8617C28.4649 30.1591 28.6694 30.489 28.7902 30.8515C28.9203 31.214 28.9854 31.5811 28.9854 31.9529C28.9854 32.3246 28.9203 32.6917 28.7902 33.0542C28.6694 33.4167 28.4649 33.7513 28.1768 34.058C27.898 34.3554 27.5169 34.597 27.0336 34.7829C26.5596 34.9595 25.9694 35.0478 25.2631 35.0478H22.7258V38.0312C22.7258 38.2078 22.6607 38.3565 22.5306 38.4773C22.4098 38.5982 22.2611 38.6586 22.0845 38.6586ZM22.7258 33.8489H25.1376C25.8347 33.8489 26.3691 33.7559 26.7408 33.57C27.1126 33.3749 27.3682 33.1332 27.5076 32.8451C27.647 32.5477 27.7167 32.2503 27.7167 31.9529C27.7167 31.6462 27.647 31.3487 27.5076 31.0606C27.3682 30.7725 27.1126 30.5355 26.7408 30.3496C26.3691 30.1545 25.8347 30.0569 25.1376 30.0569H22.7258V33.8489ZM34.6856 38.6586C34.509 38.6586 34.3603 38.5982 34.2394 38.4773C34.1186 38.3565 34.0582 38.2078 34.0582 38.0312V30.0429H31.2142C31.0469 30.0429 30.9075 29.9872 30.796 29.8756C30.6844 29.7641 30.6287 29.6247 30.6287 29.4574C30.6287 29.2901 30.6844 29.1507 30.796 29.0392C30.9075 28.9183 31.0469 28.8579 31.2142 28.8579H38.1569C38.3242 28.8579 38.4636 28.9183 38.5752 29.0392C38.696 29.1507 38.7564 29.2901 38.7564 29.4574C38.7564 29.6247 38.696 29.7641 38.5752 29.8756C38.4636 29.9872 38.3242 30.0429 38.1569 30.0429H35.3269V38.0312C35.3269 38.2078 35.2618 38.3565 35.1317 38.4773C35.0109 38.5982 34.8622 38.6586 34.6856 38.6586Z" fill="white"/>
<path d="M11.2958 38.4773L11.5453 38.2278L11.2958 38.4773ZM11.2958 29.0531L11.5455 29.3028L11.5544 29.2933L11.2958 29.0531ZM16.691 29.1367L16.5621 29.4654L16.5699 29.4683L16.691 29.1367ZM17.8342 29.8617L17.5729 30.0992L17.5807 30.1073L17.8342 29.8617ZM18.4476 30.8515L18.1127 30.9632L18.1154 30.9708L18.4476 30.8515ZM18.4476 33.0542L18.1153 32.9349L18.1128 32.9426L18.4476 33.0542ZM17.8342 34.058L17.5769 33.8163L17.5767 33.8166L17.8342 34.058ZM16.691 34.7829L16.8142 35.1137L16.8177 35.1123L16.691 34.7829ZM12.3832 35.0478V34.6949H12.0302V35.0478H12.3832ZM12.188 38.4773L11.9477 38.2185L11.9384 38.2278L12.188 38.4773ZM12.3832 33.8489H12.0302V34.2018H12.3832V33.8489ZM16.3982 33.57L16.5561 33.8858L16.5623 33.8825L16.3982 33.57ZM17.165 32.8451L17.4827 32.9988L17.4846 32.9949L17.165 32.8451ZM16.3982 30.3496L16.2341 30.6622L16.2404 30.6653L16.3982 30.3496ZM12.3832 30.0569V29.7039H12.0302V30.0569H12.3832ZM11.7419 38.3056C11.6554 38.3056 11.5975 38.28 11.5453 38.2278L11.0462 38.7269C11.2356 38.9164 11.4752 39.0115 11.7419 39.0115V38.3056ZM11.5453 38.2278C11.4931 38.1756 11.4675 38.1177 11.4675 38.0312H10.7616C10.7616 38.2979 10.8567 38.5375 11.0462 38.7269L11.5453 38.2278ZM11.4675 38.0312V29.4992H10.7616V38.0312H11.4675ZM11.4675 29.4992C11.4675 29.4127 11.4931 29.3549 11.5453 29.3027L11.0462 28.8035C10.8567 28.993 10.7616 29.2325 10.7616 29.4992H11.4675ZM11.5544 29.2933C11.6089 29.2346 11.664 29.2109 11.7419 29.2109V28.505C11.4665 28.505 11.2243 28.6114 11.0371 28.8129L11.5544 29.2933ZM11.7419 29.2109H14.9205V28.505H11.7419V29.2109ZM14.9205 29.2109C15.5986 29.2109 16.1418 29.3005 16.5621 29.4653L16.8198 28.8082C16.2922 28.6013 15.655 28.505 14.9205 28.505V29.2109ZM16.5699 29.4683C17.0123 29.6299 17.3407 29.8436 17.573 30.0991L18.0953 29.6243C17.7699 29.2664 17.3363 28.9968 16.8121 28.8052L16.5699 29.4683ZM17.5807 30.1073C17.8351 30.3699 18.01 30.6549 18.1128 30.9631L18.7824 30.7399C18.6435 30.3231 18.4095 29.9483 18.0877 29.6161L17.5807 30.1073ZM18.1154 30.9708C18.2323 31.2964 18.2898 31.6232 18.2898 31.9529H18.9957C18.9957 31.539 18.9231 31.1316 18.7798 30.7323L18.1154 30.9708ZM18.2898 31.9529C18.2898 32.2825 18.2323 32.6094 18.1154 32.935L18.7798 33.1735C18.9231 32.7741 18.9957 32.3667 18.9957 31.9529H18.2898ZM18.1128 32.9426C18.0097 33.2519 17.8337 33.543 17.5769 33.8163L18.0914 34.2996C18.4109 33.9595 18.6439 33.5815 18.7824 33.1658L18.1128 32.9426ZM17.5767 33.8166C17.3427 34.0661 17.0109 34.2817 16.5643 34.4535L16.8177 35.1123C17.3376 34.9124 17.768 34.6446 18.0917 34.2994L17.5767 33.8166ZM16.5678 34.4522C16.1454 34.6095 15.6002 34.6949 14.9205 34.6949V35.4007C15.6535 35.4007 16.2885 35.3095 16.8142 35.1137L16.5678 34.4522ZM14.9205 34.6949H12.3832V35.4007H14.9205V34.6949ZM12.0302 35.0478V38.0312H12.7361V35.0478H12.0302ZM12.0302 38.0312C12.0302 38.1091 12.0065 38.1642 11.9478 38.2187L12.4282 38.736C12.6297 38.5488 12.7361 38.3066 12.7361 38.0312H12.0302ZM11.9384 38.2278C11.8862 38.28 11.8284 38.3056 11.7419 38.3056V39.0115C12.0086 39.0115 12.2481 38.9164 12.4376 38.7269L11.9384 38.2278ZM12.3832 34.2018H14.795V33.4959H12.3832V34.2018ZM14.795 34.2018C15.5144 34.2018 16.1128 34.1074 16.5561 33.8857L16.2404 33.2544C15.9401 33.4045 15.4697 33.4959 14.795 33.4959V34.2018ZM16.5623 33.8825C16.9801 33.6632 17.3014 33.3734 17.4827 32.9988L16.8473 32.6914C16.7497 32.893 16.5598 33.0866 16.2342 33.2576L16.5623 33.8825ZM17.4846 32.9949C17.6436 32.6556 17.7271 32.3073 17.7271 31.9529H17.0212C17.0212 32.1933 16.9652 32.4398 16.8454 32.6953L17.4846 32.9949ZM17.7271 31.9529C17.7271 31.5906 17.6443 31.2408 17.4827 30.9069L16.8473 31.2144C16.9645 31.4567 17.0212 31.7017 17.0212 31.9529H17.7271ZM17.4827 30.9069C17.3004 30.5301 16.9766 30.2442 16.5561 30.034L16.2404 30.6653C16.5634 30.8268 16.7508 31.0149 16.8473 31.2144L17.4827 30.9069ZM16.5623 30.0371C16.117 29.8033 15.5159 29.7039 14.795 29.7039V30.4098C15.4682 30.4098 15.936 30.5056 16.2342 30.6621L16.5623 30.0371ZM14.795 29.7039H12.3832V30.4098H14.795V29.7039ZM12.0302 30.0569V33.8489H12.7361V30.0569H12.0302ZM21.6384 38.4773L21.8879 38.2278L21.6384 38.4773ZM21.6384 29.0531L21.8881 29.3028L21.897 29.2933L21.6384 29.0531ZM27.0336 29.1367L26.9047 29.4654L26.9125 29.4683L27.0336 29.1367ZM28.1768 29.8617L27.9155 30.0992L27.9233 30.1073L28.1768 29.8617ZM28.7902 30.8515L28.4553 30.9632L28.458 30.9708L28.7902 30.8515ZM28.7902 33.0542L28.4579 32.9349L28.4554 32.9426L28.7902 33.0542ZM28.1768 34.058L27.9195 33.8163L27.9193 33.8166L28.1768 34.058ZM27.0336 34.7829L27.1568 35.1137L27.1603 35.1123L27.0336 34.7829ZM22.7258 35.0478V34.6949H22.3728V35.0478H22.7258ZM22.5306 38.4773L22.2903 38.2185L22.281 38.2278L22.5306 38.4773ZM22.7258 33.8489H22.3728V34.2018H22.7258V33.8489ZM26.7408 33.57L26.8987 33.8858L26.9049 33.8825L26.7408 33.57ZM27.5076 32.8451L27.8253 32.9988L27.8272 32.9949L27.5076 32.8451ZM26.7408 30.3496L26.5767 30.6622L26.583 30.6653L26.7408 30.3496ZM22.7258 30.0569V29.7039H22.3728V30.0569H22.7258ZM22.0845 38.3056C21.998 38.3056 21.9401 38.28 21.8879 38.2278L21.3888 38.7269C21.5782 38.9164 21.8178 39.0115 22.0845 39.0115V38.3056ZM21.8879 38.2278C21.8357 38.1756 21.8101 38.1177 21.8101 38.0312H21.1042C21.1042 38.2979 21.1994 38.5375 21.3888 38.7269L21.8879 38.2278ZM21.8101 38.0312V29.4992H21.1042V38.0312H21.8101ZM21.8101 29.4992C21.8101 29.4127 21.8357 29.3549 21.8879 29.3027L21.3888 28.8035C21.1994 28.993 21.1042 29.2325 21.1042 29.4992H21.8101ZM21.897 29.2933C21.9515 29.2346 22.0067 29.2109 22.0845 29.2109V28.505C21.8091 28.505 21.5669 28.6114 21.3797 28.8129L21.897 29.2933ZM22.0845 29.2109H25.2631V28.505H22.0845V29.2109ZM25.2631 29.2109C25.9412 29.2109 26.4844 29.3005 26.9047 29.4653L27.1625 28.8082C26.6348 28.6013 25.9976 28.505 25.2631 28.505V29.2109ZM26.9125 29.4683C27.3549 29.6299 27.6834 29.8436 27.9156 30.0991L28.4379 29.6243C28.1126 29.2664 27.6789 28.9968 27.1547 28.8052L26.9125 29.4683ZM27.9233 30.1073C28.1777 30.3699 28.3526 30.6549 28.4554 30.9631L29.125 30.7399C28.9861 30.3231 28.7521 29.9483 28.4303 29.6161L27.9233 30.1073ZM28.458 30.9708C28.5749 31.2964 28.6324 31.6232 28.6324 31.9529H29.3383C29.3383 31.539 29.2657 31.1316 29.1224 30.7323L28.458 30.9708ZM28.6324 31.9529C28.6324 32.2825 28.5749 32.6094 28.458 32.935L29.1224 33.1735C29.2657 32.7741 29.3383 32.3667 29.3383 31.9529H28.6324ZM28.4554 32.9426C28.3523 33.2519 28.1763 33.543 27.9195 33.8163L28.434 34.2996C28.7535 33.9595 28.9865 33.5815 29.125 33.1658L28.4554 32.9426ZM27.9193 33.8166C27.6853 34.0661 27.3535 34.2817 26.9069 34.4535L27.1603 35.1123C27.6803 34.9124 28.1106 34.6446 28.4343 34.2994L27.9193 33.8166ZM26.9104 34.4522C26.4881 34.6095 25.9428 34.6949 25.2631 34.6949V35.4007C25.9961 35.4007 26.6311 35.3095 27.1568 35.1137L26.9104 34.4522ZM25.2631 34.6949H22.7258V35.4007H25.2631V34.6949ZM22.3728 35.0478V38.0312H23.0787V35.0478H22.3728ZM22.3728 38.0312C22.3728 38.1091 22.3491 38.1642 22.2904 38.2187L22.7708 38.736C22.9723 38.5488 23.0787 38.3066 23.0787 38.0312H22.3728ZM22.281 38.2278C22.2288 38.28 22.171 38.3056 22.0845 38.3056V39.0115C22.3512 39.0115 22.5907 38.9164 22.7802 38.7269L22.281 38.2278ZM22.7258 34.2018H25.1376V33.4959H22.7258V34.2018ZM25.1376 34.2018C25.857 34.2018 26.4554 34.1074 26.8987 33.8857L26.583 33.2544C26.2828 33.4045 25.8123 33.4959 25.1376 33.4959V34.2018ZM26.9049 33.8825C27.3228 33.6632 27.6441 33.3734 27.8253 32.9988L27.1899 32.6914C27.0923 32.893 26.9025 33.0866 26.5768 33.2576L26.9049 33.8825ZM27.8272 32.9949C27.9862 32.6556 28.0697 32.3073 28.0697 31.9529H27.3638C27.3638 32.1933 27.3078 32.4398 27.188 32.6953L27.8272 32.9949ZM28.0697 31.9529C28.0697 31.5906 27.9869 31.2408 27.8253 30.9069L27.1899 31.2144C27.3072 31.4567 27.3638 31.7017 27.3638 31.9529H28.0697ZM27.8253 30.9069C27.643 30.5301 27.3192 30.2442 26.8987 30.034L26.583 30.6653C26.906 30.8268 27.0934 31.0149 27.1899 31.2144L27.8253 30.9069ZM26.9049 30.0371C26.4596 29.8033 25.8585 29.7039 25.1376 29.7039V30.4098C25.8108 30.4098 26.2786 30.5056 26.5768 30.6621L26.9049 30.0371ZM25.1376 29.7039H22.7258V30.4098H25.1376V29.7039ZM22.3728 30.0569V33.8489H23.0787V30.0569H22.3728ZM34.2394 38.4773L33.9899 38.7269L34.2394 38.4773ZM34.0582 30.0429H34.4112V29.69H34.0582V30.0429ZM30.796 29.8756L30.5464 30.1252V30.1252L30.796 29.8756ZM30.796 29.0392L31.0457 29.2889L31.0553 29.2786L30.796 29.0392ZM38.5752 29.0392L38.3158 29.2786L38.3254 29.2889L38.3358 29.2985L38.5752 29.0392ZM38.5752 29.8756L38.3356 29.6161L38.3256 29.6261L38.5752 29.8756ZM35.3269 30.0429V29.69H34.9739V30.0429H35.3269ZM35.1317 38.4773L34.8914 38.2185L34.8821 38.2278L35.1317 38.4773ZM34.6856 38.3056C34.5991 38.3056 34.5412 38.28 34.489 38.2278L33.9899 38.7269C34.1793 38.9164 34.4189 39.0115 34.6856 39.0115V38.3056ZM34.489 38.2278C34.4368 38.1756 34.4112 38.1177 34.4112 38.0312H33.7053C33.7053 38.2979 33.8004 38.5375 33.9899 38.7269L34.489 38.2278ZM34.4112 38.0312V30.0429H33.7053V38.0312H34.4112ZM34.0582 29.69H31.2142V30.3959H34.0582V29.69ZM31.2142 29.69C31.1342 29.69 31.0866 29.6671 31.0455 29.6261L30.5464 30.1252C30.7285 30.3072 30.9596 30.3959 31.2142 30.3959V29.69ZM31.0455 29.6261C31.0045 29.5851 30.9816 29.5374 30.9816 29.4574H30.2757C30.2757 29.712 30.3644 29.9432 30.5464 30.1252L31.0455 29.6261ZM30.9816 29.4574C30.9816 29.3774 31.0045 29.3297 31.0455 29.2887L30.5464 28.7896C30.3644 28.9716 30.2757 29.2028 30.2757 29.4574H30.9816ZM31.0553 29.2786C31.0987 29.2315 31.1435 29.2109 31.2142 29.2109V28.505C30.9504 28.505 30.7163 28.6051 30.5366 28.7998L31.0553 29.2786ZM31.2142 29.2109H38.1569V28.505H31.2142V29.2109ZM38.1569 29.2109C38.2277 29.2109 38.2724 29.2315 38.3158 29.2786L38.8345 28.7998C38.6548 28.6051 38.4208 28.505 38.1569 28.505V29.2109ZM38.3358 29.2985C38.3828 29.3419 38.4034 29.3867 38.4034 29.4574H39.1093C39.1093 29.1935 39.0092 28.9595 38.8145 28.7798L38.3358 29.2985ZM38.4034 29.4574C38.4034 29.5281 38.3828 29.5729 38.3358 29.6163L38.8145 30.135C39.0092 29.9553 39.1093 29.7212 39.1093 29.4574H38.4034ZM38.3256 29.6261C38.2846 29.6671 38.2369 29.69 38.1569 29.69V30.3959C38.4115 30.3959 38.6427 30.3072 38.8247 30.1252L38.3256 29.6261ZM38.1569 29.69H35.3269V30.3959H38.1569V29.69ZM34.9739 30.0429V38.0312H35.6798V30.0429H34.9739ZM34.9739 38.0312C34.9739 38.1091 34.9502 38.1642 34.8915 38.2187L35.3718 38.736C35.5734 38.5488 35.6798 38.3066 35.6798 38.0312H34.9739ZM34.8821 38.2278C34.8299 38.28 34.772 38.3056 34.6856 38.3056V39.0115C34.9523 39.0115 35.1918 38.9164 35.3813 38.7269L34.8821 38.2278Z" fill="white" mask="url(#path-5-outside-1_288_3376)"/>
<mask id="mask1_288_3376" style="mask-type:alpha" maskUnits="userSpaceOnUse" x="0" y="0" width="48" height="55">
<path d="M44.1176 54.3539H3.88235C1.73819 54.3539 0 52.6157 0 50.4716V3.88333C0 1.73917 1.73819 0.000976562 3.88235 0.000976562H30L48 18.001V50.4716C48 52.6157 46.2618 54.3539 44.1176 54.3539Z" fill="url(#paint2_linear_288_3376)"/>
</mask>
<g mask="url(#mask1_288_3376)">
<ellipse opacity="0.05" cx="-2.55882" cy="-2.20468" rx="39.4412" ry="37.8529" fill="url(#paint3_linear_288_3376)"/>
<ellipse opacity="0.07" cx="-2.55842" cy="-2.20514" rx="24.7941" ry="23.7353" fill="url(#paint4_linear_288_3376)"/>
</g>
<g filter="url(#filter1_d_288_3376)">
<path d="M48 18.0005H33.8824C31.7382 18.0005 30 16.2623 30 14.1181V0.000488281L48 18.0005Z" fill="url(#paint5_linear_288_3376)"/>
</g>
</g>
<defs>
<filter id="filter0_f_288_3376" x="-4.23489" y="19.4121" width="56.8233" height="28.5884" filterUnits="userSpaceOnUse" color-interpolation-filters="sRGB">
<feFlood flood-opacity="0" result="BackgroundImageFix"/>
<feBlend mode="normal" in="SourceGraphic" in2="BackgroundImageFix" result="shape"/>
<feGaussianBlur stdDeviation="3.44118" result="effect1_foregroundBlur_288_3376"/>
</filter>
<filter id="filter1_d_288_3376" x="25.9412" y="-4.23481" width="26.8235" height="26.8235" filterUnits="userSpaceOnUse" color-interpolation-filters="sRGB">
<feFlood flood-opacity="0" result="BackgroundImageFix"/>
<feColorMatrix in="SourceAlpha" type="matrix" values="0 0 0 0 0 0 0 0 0 0 0 0 0 0 0 0 0 0 127 0" result="hardAlpha"/>
<feOffset dx="0.352941" dy="0.176471"/>
<feGaussianBlur stdDeviation="2.20588"/>
<feColorMatrix type="matrix" values="0 0 0 0 0 0 0 0 0 0 0 0 0 0 0 0 0 0 0.33 0"/>
<feBlend mode="normal" in2="BackgroundImageFix" result="effect1_dropShadow_288_3376"/>
<feBlend mode="normal" in="SourceGraphic" in2="effect1_dropShadow_288_3376" result="shape"/>
</filter>
<linearGradient id="paint0_linear_288_3376" x1="24" y1="0.000488281" x2="24" y2="54.3534" gradientUnits="userSpaceOnUse">
<stop stop-color="#FF7979"/>
<stop offset="1" stop-color="#E85555"/>
</linearGradient>
<linearGradient id="paint1_linear_288_3376" x1="24" y1="0.000488281" x2="24" y2="54.3534" gradientUnits="userSpaceOnUse">
<stop stop-color="#FF8777"/>
<stop offset="1" stop-color="#F0695F"/>
</linearGradient>
<linearGradient id="paint2_linear_288_3376" x1="24" y1="0.000976562" x2="24" y2="54.3539" gradientUnits="userSpaceOnUse">
<stop stop-color="#FF8777"/>
<stop offset="1" stop-color="#F0695F"/>
</linearGradient>
<linearGradient id="paint3_linear_288_3376" x1="0.304892" y1="-0.90389" x2="12.2659" y2="30.8408" gradientUnits="userSpaceOnUse">
<stop stop-color="white" stop-opacity="0"/>
<stop offset="1" stop-color="white"/>
</linearGradient>
<linearGradient id="paint4_linear_288_3376" x1="-0.75819" y1="-1.38949" x2="6.72753" y2="18.5283" gradientUnits="userSpaceOnUse">
<stop stop-color="white" stop-opacity="0"/>
<stop offset="1" stop-color="white"/>
</linearGradient>
<linearGradient id="paint5_linear_288_3376" x1="39" y1="0.000488281" x2="39" y2="18.0005" gradientUnits="userSpaceOnUse">
<stop stop-color="#DA5D4C"/>
<stop offset="1" stop-color="#E32900"/>
</linearGradient>
</defs>
</svg>
