<svg width="48" height="48" viewBox="0 0 48 48" fill="none" xmlns="http://www.w3.org/2000/svg">
<path fill-rule="evenodd" clip-rule="evenodd" d="M26.1461 7.32078C26.4852 6.32452 25.9717 5.2268 24.9497 4.97574C23.6842 4.66487 22.3614 4.5 21 4.5C11.8873 4.5 4.5 11.8873 4.5 21C4.5 30.1126 11.8873 37.5 21 37.5C30.1126 37.5 37.5 30.1126 37.5 21C37.5 19.9905 37.4093 19.0021 37.2357 18.0426C37.0451 16.9895 35.9134 16.4555 34.9205 16.8548L34.3238 17.0948C34.208 17.1414 34.1183 17.2362 34.078 17.3543V17.3543C34.0506 17.4349 34.048 17.5218 34.0693 17.6042C34.3504 18.6891 34.5 19.8271 34.5 21C34.5 28.4558 28.4558 34.5 21 34.5C13.5442 34.5 7.5 28.4558 7.5 21C7.5 13.5441 13.5441 7.5 21 7.5C22.5458 7.5 24.031 7.75982 25.4142 8.23819C25.5047 8.26947 25.6034 8.2678 25.6922 8.23208V8.23208C25.7979 8.18959 25.8797 8.10316 25.9164 7.99537L26.1461 7.32078Z" fill="white"/>
<path d="M39.9998 40.0001L31.6064 31.6067Z" fill="white"/>
<path d="M39.9998 40.0001L31.6064 31.6067" stroke="white" stroke-width="3" stroke-linecap="round" stroke-linejoin="round"/>
<path d="M40 12.0001L33.1875 14.5209L30.6667 21.3334L28.1458 14.5209L21.3333 12.0001L28.1458 9.47923L30.6667 2.66675L33.1875 9.47923L40 12.0001Z" fill="white"/>
<path d="M40 12.0001L33.1875 14.5209L30.6667 21.3334L28.1458 14.5209L21.3333 12.0001L28.1458 9.47923L30.6667 2.66675L33.1875 9.47923L40 12.0001Z" stroke="#029FE6"/>
</svg>
