<svg width="48" height="55" viewBox="0 0 48 55" fill="none" xmlns="http://www.w3.org/2000/svg">
<mask id="mask0_288_3412" style="mask-type:alpha" maskUnits="userSpaceOnUse" x="0" y="0" width="48" height="55">
<path d="M44.1176 54.3534H3.88235C1.73819 54.3534 0 52.6152 0 50.4711V3.88284C0 1.73868 1.73819 0.000488281 3.88235 0.000488281H30L48 18.0005V50.4711C48 52.6152 46.2618 54.3534 44.1176 54.3534Z" fill="url(#paint0_linear_288_3412)"/>
</mask>
<g mask="url(#mask0_288_3412)">
<path d="M44.1176 54.3534H3.88235C1.73819 54.3534 0 52.6152 0 50.4711V3.88284C0 1.73868 1.73819 0.000488281 3.88235 0.000488281H30L48 18.0005V50.4711C48 52.6152 46.2618 54.3534 44.1176 54.3534Z" fill="url(#paint1_linear_288_3412)"/>
<g opacity="0.82" filter="url(#filter0_f_288_3412)">
<rect x="8.4707" y="26.2944" width="31.4118" height="14.8235" fill="#0F7D56" fill-opacity="0.27" style="mix-blend-mode:darken"/>
</g>
<path opacity="0.12" fill-rule="evenodd" clip-rule="evenodd" d="M8.2944 28.766V22.4126H17.2951V28.766L8.2944 28.766ZM8.2944 30.8836V37.2366L17.2951 37.2366V30.8836L8.2944 30.8836ZM8.2944 39.3542V45.7067H17.2951V39.3542L8.2944 39.3542ZM19.4127 45.7067H28.4127V39.3542H19.4127V45.7067ZM30.5304 45.7067H39.5297V39.3542L30.5304 39.3542V45.7067ZM39.5297 37.2366V30.8836L30.5304 30.8836V37.2366L39.5297 37.2366ZM39.5297 28.766V22.4126H30.5304V28.766L39.5297 28.766ZM28.4127 22.4126H19.4127V28.766L28.4127 28.766V22.4126ZM6.17676 21.7067C6.17676 20.927 6.80883 20.2949 7.58852 20.2949H40.2356C41.0153 20.2949 41.6473 20.927 41.6473 21.7067V46.4126C41.6473 47.1923 41.0153 47.8243 40.2356 47.8243H7.58852C6.80883 47.8243 6.17676 47.1923 6.17676 46.4126V21.7067ZM28.4127 30.8836V37.2366H19.4127V30.8836L28.4127 30.8836Z" fill="white"/>
<mask id="path-5-outside-1_288_3412" maskUnits="userSpaceOnUse" x="10.0586" y="27.5889" width="28" height="12" fill="black">
<rect fill="white" x="10.0586" y="27.5889" width="28" height="12"/>
<path d="M11.2575 38.6586C11.0995 38.6586 10.9601 38.6028 10.8393 38.4913C10.7278 38.3705 10.672 38.231 10.672 38.073C10.672 37.9243 10.7138 37.7942 10.7975 37.6827L14.0179 33.7234L10.8254 29.792C10.7417 29.6805 10.6999 29.5503 10.6999 29.4016C10.6999 29.225 10.7557 29.081 10.8672 28.9695C10.988 28.8486 11.1367 28.7882 11.3133 28.7882C11.5364 28.7882 11.7083 28.8719 11.8291 29.0392L14.7707 32.7754L17.7123 29.0113C17.8145 28.8626 17.9679 28.7882 18.1724 28.7882C18.3397 28.7882 18.4837 28.8486 18.6045 28.9695C18.7254 29.081 18.7858 29.2204 18.7858 29.3877C18.7858 29.5178 18.7486 29.634 18.6742 29.7362L15.4538 33.7095L18.6742 37.6687C18.7579 37.7617 18.7997 37.8825 18.7997 38.0312C18.7997 38.1985 18.7439 38.3472 18.6324 38.4773C18.5209 38.5982 18.3675 38.6586 18.1724 38.6586C17.9679 38.6586 17.8006 38.5703 17.6705 38.3937L14.6871 34.6435L11.7455 38.4076C11.6061 38.5749 11.4434 38.6586 11.2575 38.6586ZM22.6182 38.5889C22.3765 38.5889 22.1674 38.5052 21.9908 38.3379C21.8235 38.1613 21.7399 37.9522 21.7399 37.7106V29.4295C21.7399 29.2529 21.8003 29.1042 21.9211 28.9834C22.0419 28.8533 22.1906 28.7882 22.3672 28.7882C22.5438 28.7882 22.6925 28.8533 22.8134 28.9834C22.9435 29.1042 23.0085 29.2529 23.0085 29.4295V37.3202H27.5673C27.7439 37.3202 27.8926 37.3853 28.0134 37.5154C28.1435 37.6362 28.2086 37.7849 28.2086 37.9615C28.2086 38.1381 28.1435 38.2868 28.0134 38.4076C27.8926 38.5285 27.7439 38.5889 27.5673 38.5889H22.6182ZM33.8153 38.7283C33.1183 38.7283 32.4909 38.6632 31.9333 38.5331C31.3849 38.3937 30.9063 38.2357 30.4973 38.0591C30.3951 38.0126 30.3022 37.9383 30.2185 37.836C30.1442 37.7245 30.107 37.6083 30.107 37.4875C30.107 37.3295 30.1581 37.1947 30.2603 37.0832C30.3626 36.9624 30.502 36.902 30.6786 36.902C30.7715 36.902 30.8598 36.9206 30.9435 36.9577C31.2595 37.0972 31.6452 37.2273 32.1006 37.3481C32.5653 37.4689 33.095 37.5293 33.6899 37.5293C34.1546 37.5293 34.5682 37.4829 34.9306 37.3899C35.3024 37.2877 35.5952 37.1204 35.8089 36.888C36.0227 36.6464 36.1296 36.3257 36.1296 35.9261C36.1296 35.6287 36.0227 35.3917 35.8089 35.2151C35.5952 35.0292 35.3117 34.8759 34.9585 34.755C34.6053 34.6342 34.215 34.5227 33.7875 34.4205C33.3692 34.3182 32.951 34.2067 32.5327 34.0859C32.1145 33.9557 31.7288 33.7885 31.3756 33.584C31.0225 33.3795 30.739 33.1193 30.5252 32.8033C30.3115 32.478 30.2046 32.069 30.2046 31.5765C30.2046 31.056 30.3393 30.582 30.6089 30.1545C30.8877 29.7176 31.2966 29.3691 31.8357 29.1089C32.3747 28.8486 33.0346 28.7185 33.8153 28.7185C34.3637 28.7185 34.8702 28.7603 35.3349 28.844C35.7996 28.9276 36.2179 29.0392 36.5896 29.1786C36.6919 29.2157 36.7802 29.2762 36.8545 29.3598C36.9382 29.4435 36.98 29.5689 36.98 29.7362C36.98 29.8756 36.9289 30.0104 36.8266 30.1405C36.7337 30.2613 36.5989 30.3217 36.4223 30.3217C36.3852 30.3217 36.348 30.3171 36.3108 30.3078C36.2736 30.2892 36.2365 30.2753 36.1993 30.266C35.8833 30.1545 35.5347 30.0662 35.1537 30.0011C34.7819 29.9267 34.3823 29.8896 33.9547 29.8896C33.2484 29.8896 32.6582 30.0243 32.1842 30.2939C31.7102 30.5634 31.4732 30.9584 31.4732 31.4789C31.4732 31.8227 31.5801 32.0969 31.7939 32.3014C32.0076 32.5059 32.2911 32.6685 32.6443 32.7893C32.9975 32.9102 33.3832 33.0217 33.8014 33.1239C34.2196 33.2169 34.6379 33.3237 35.0561 33.4446C35.4743 33.5654 35.86 33.728 36.2132 33.9325C36.5664 34.1277 36.8499 34.3926 37.0636 34.7272C37.2774 35.0525 37.3843 35.48 37.3843 36.0097C37.3843 36.5302 37.2356 36.9996 36.9382 37.4178C36.65 37.8267 36.2365 38.1474 35.6974 38.3797C35.1676 38.6121 34.5403 38.7283 33.8153 38.7283Z"/>
</mask>
<path d="M11.2575 38.6586C11.0995 38.6586 10.9601 38.6028 10.8393 38.4913C10.7278 38.3705 10.672 38.231 10.672 38.073C10.672 37.9243 10.7138 37.7942 10.7975 37.6827L14.0179 33.7234L10.8254 29.792C10.7417 29.6805 10.6999 29.5503 10.6999 29.4016C10.6999 29.225 10.7557 29.081 10.8672 28.9695C10.988 28.8486 11.1367 28.7882 11.3133 28.7882C11.5364 28.7882 11.7083 28.8719 11.8291 29.0392L14.7707 32.7754L17.7123 29.0113C17.8145 28.8626 17.9679 28.7882 18.1724 28.7882C18.3397 28.7882 18.4837 28.8486 18.6045 28.9695C18.7254 29.081 18.7858 29.2204 18.7858 29.3877C18.7858 29.5178 18.7486 29.634 18.6742 29.7362L15.4538 33.7095L18.6742 37.6687C18.7579 37.7617 18.7997 37.8825 18.7997 38.0312C18.7997 38.1985 18.7439 38.3472 18.6324 38.4773C18.5209 38.5982 18.3675 38.6586 18.1724 38.6586C17.9679 38.6586 17.8006 38.5703 17.6705 38.3937L14.6871 34.6435L11.7455 38.4076C11.6061 38.5749 11.4434 38.6586 11.2575 38.6586ZM22.6182 38.5889C22.3765 38.5889 22.1674 38.5052 21.9908 38.3379C21.8235 38.1613 21.7399 37.9522 21.7399 37.7106V29.4295C21.7399 29.2529 21.8003 29.1042 21.9211 28.9834C22.0419 28.8533 22.1906 28.7882 22.3672 28.7882C22.5438 28.7882 22.6925 28.8533 22.8134 28.9834C22.9435 29.1042 23.0085 29.2529 23.0085 29.4295V37.3202H27.5673C27.7439 37.3202 27.8926 37.3853 28.0134 37.5154C28.1435 37.6362 28.2086 37.7849 28.2086 37.9615C28.2086 38.1381 28.1435 38.2868 28.0134 38.4076C27.8926 38.5285 27.7439 38.5889 27.5673 38.5889H22.6182ZM33.8153 38.7283C33.1183 38.7283 32.4909 38.6632 31.9333 38.5331C31.3849 38.3937 30.9063 38.2357 30.4973 38.0591C30.3951 38.0126 30.3022 37.9383 30.2185 37.836C30.1442 37.7245 30.107 37.6083 30.107 37.4875C30.107 37.3295 30.1581 37.1947 30.2603 37.0832C30.3626 36.9624 30.502 36.902 30.6786 36.902C30.7715 36.902 30.8598 36.9206 30.9435 36.9577C31.2595 37.0972 31.6452 37.2273 32.1006 37.3481C32.5653 37.4689 33.095 37.5293 33.6899 37.5293C34.1546 37.5293 34.5682 37.4829 34.9306 37.3899C35.3024 37.2877 35.5952 37.1204 35.8089 36.888C36.0227 36.6464 36.1296 36.3257 36.1296 35.9261C36.1296 35.6287 36.0227 35.3917 35.8089 35.2151C35.5952 35.0292 35.3117 34.8759 34.9585 34.755C34.6053 34.6342 34.215 34.5227 33.7875 34.4205C33.3692 34.3182 32.951 34.2067 32.5327 34.0859C32.1145 33.9557 31.7288 33.7885 31.3756 33.584C31.0225 33.3795 30.739 33.1193 30.5252 32.8033C30.3115 32.478 30.2046 32.069 30.2046 31.5765C30.2046 31.056 30.3393 30.582 30.6089 30.1545C30.8877 29.7176 31.2966 29.3691 31.8357 29.1089C32.3747 28.8486 33.0346 28.7185 33.8153 28.7185C34.3637 28.7185 34.8702 28.7603 35.3349 28.844C35.7996 28.9276 36.2179 29.0392 36.5896 29.1786C36.6919 29.2157 36.7802 29.2762 36.8545 29.3598C36.9382 29.4435 36.98 29.5689 36.98 29.7362C36.98 29.8756 36.9289 30.0104 36.8266 30.1405C36.7337 30.2613 36.5989 30.3217 36.4223 30.3217C36.3852 30.3217 36.348 30.3171 36.3108 30.3078C36.2736 30.2892 36.2365 30.2753 36.1993 30.266C35.8833 30.1545 35.5347 30.0662 35.1537 30.0011C34.7819 29.9267 34.3823 29.8896 33.9547 29.8896C33.2484 29.8896 32.6582 30.0243 32.1842 30.2939C31.7102 30.5634 31.4732 30.9584 31.4732 31.4789C31.4732 31.8227 31.5801 32.0969 31.7939 32.3014C32.0076 32.5059 32.2911 32.6685 32.6443 32.7893C32.9975 32.9102 33.3832 33.0217 33.8014 33.1239C34.2196 33.2169 34.6379 33.3237 35.0561 33.4446C35.4743 33.5654 35.86 33.728 36.2132 33.9325C36.5664 34.1277 36.8499 34.3926 37.0636 34.7272C37.2774 35.0525 37.3843 35.48 37.3843 36.0097C37.3843 36.5302 37.2356 36.9996 36.9382 37.4178C36.65 37.8267 36.2365 38.1474 35.6974 38.3797C35.1676 38.6121 34.5403 38.7283 33.8153 38.7283Z" fill="white"/>
<path d="M10.8393 38.4913L10.58 38.7307L10.5895 38.741L10.5999 38.7506L10.8393 38.4913ZM10.7975 37.6827L10.5235 37.4598L10.5151 37.4709L10.7975 37.6827ZM14.0179 33.7234L14.2917 33.9461L14.4727 33.7236L14.2919 33.5009L14.0179 33.7234ZM10.8254 29.792L10.5428 30.0039L10.5514 30.0145L10.8254 29.792ZM10.8672 28.9695L10.6176 28.7199L10.6176 28.7199L10.8672 28.9695ZM11.8291 29.0392L11.543 29.2458L11.5473 29.2517L11.5518 29.2575L11.8291 29.0392ZM14.7707 32.7754L14.4934 32.9937L14.7717 33.3473L15.0488 32.9927L14.7707 32.7754ZM17.7123 29.0113L17.9904 29.2286L17.997 29.2201L18.0031 29.2112L17.7123 29.0113ZM18.6045 28.9695L18.3548 29.2192L18.3651 29.2288L18.6045 28.9695ZM18.6742 29.7362L18.9484 29.9585L18.9542 29.9513L18.9597 29.9438L18.6742 29.7362ZM15.4538 33.7095L15.1796 33.4872L14.9992 33.7098L15.18 33.9322L15.4538 33.7095ZM18.6742 37.6687L18.4004 37.8915L18.406 37.8983L18.4119 37.9049L18.6742 37.6687ZM18.6324 38.4773L18.8919 38.7169L18.9004 38.707L18.6324 38.4773ZM17.6705 38.3937L17.9548 38.1842L17.9467 38.174L17.6705 38.3937ZM14.6871 34.6435L14.9633 34.4238L14.6846 34.0735L14.409 34.4262L14.6871 34.6435ZM11.7455 38.4076L12.0167 38.6337L12.0236 38.625L11.7455 38.4076ZM11.2575 38.3056C11.1922 38.3056 11.1372 38.286 11.0787 38.2319L10.5999 38.7506C10.783 38.9196 11.0069 39.0115 11.2575 39.0115V38.3056ZM11.0986 38.2519C11.0446 38.1933 11.0249 38.1384 11.0249 38.073H10.3191C10.3191 38.3237 10.4109 38.5476 10.58 38.7307L11.0986 38.2519ZM11.0249 38.073C11.0249 37.9953 11.0452 37.9407 11.0798 37.8945L10.5151 37.4709C10.3825 37.6477 10.3191 37.8534 10.3191 38.073H11.0249ZM11.0713 37.9054L14.2917 33.9461L13.7441 33.5007L10.5237 37.46L11.0713 37.9054ZM14.2919 33.5009L11.0993 29.5695L10.5514 30.0145L13.7439 33.9459L14.2919 33.5009ZM11.1077 29.5802C11.073 29.534 11.0528 29.4794 11.0528 29.4016H10.3469C10.3469 29.6213 10.4104 29.8269 10.543 30.0037L11.1077 29.5802ZM11.0528 29.4016C11.0528 29.3064 11.0796 29.2562 11.1167 29.219L10.6176 28.7199C10.4317 28.9058 10.3469 29.1437 10.3469 29.4016H11.0528ZM11.1167 29.219C11.1689 29.1668 11.2268 29.1412 11.3133 29.1412V28.4353C11.0466 28.4353 10.8071 28.5304 10.6176 28.7199L11.1167 29.219ZM11.3133 29.1412C11.4337 29.1412 11.4946 29.1787 11.543 29.2458L12.1152 28.8325C11.922 28.565 11.639 28.4353 11.3133 28.4353V29.1412ZM11.5518 29.2575L14.4934 32.9937L15.048 32.5571L12.1064 28.8208L11.5518 29.2575ZM15.0488 32.9927L17.9904 29.2286L17.4342 28.794L14.4926 32.5581L15.0488 32.9927ZM18.0031 29.2112C18.03 29.1722 18.0661 29.1412 18.1724 29.1412V28.4353C17.8696 28.4353 17.5991 28.5529 17.4215 28.8113L18.0031 29.2112ZM18.1724 29.1412C18.2438 29.1412 18.2987 29.1628 18.355 29.219L18.8541 28.7199C18.6687 28.5345 18.4355 28.4353 18.1724 28.4353V29.1412ZM18.3651 29.2288C18.4122 29.2722 18.4328 29.317 18.4328 29.3877H19.1387C19.1387 29.1238 19.0386 28.8898 18.8439 28.7101L18.3651 29.2288ZM18.4328 29.3877C18.4328 29.4456 18.4179 29.4886 18.3888 29.5286L18.9597 29.9438C19.0793 29.7794 19.1387 29.5901 19.1387 29.3877H18.4328ZM18.4001 29.514L15.1796 33.4872L15.728 33.9317L18.9484 29.9585L18.4001 29.514ZM15.18 33.9322L18.4004 37.8915L18.948 37.446L15.7276 33.4867L15.18 33.9322ZM18.4119 37.9049C18.4265 37.9211 18.4468 37.9523 18.4468 38.0312H19.1527C19.1527 37.8128 19.0893 37.6023 18.9366 37.4326L18.4119 37.9049ZM18.4468 38.0312C18.4468 38.112 18.4226 38.1798 18.3644 38.2476L18.9004 38.707C19.0653 38.5147 19.1527 38.285 19.1527 38.0312H18.4468ZM18.3731 38.2379C18.3408 38.2729 18.2891 38.3056 18.1724 38.3056V39.0115C18.446 39.0115 18.7009 38.9235 18.8918 38.7167L18.3731 38.2379ZM18.1724 38.3056C18.0892 38.3056 18.0239 38.2783 17.9546 38.1843L17.3863 38.6031C17.5773 38.8623 17.8466 39.0115 18.1724 39.0115V38.3056ZM17.9467 38.174L14.9633 34.4238L14.4109 34.8632L17.3943 38.6134L17.9467 38.174ZM14.409 34.4262L11.4674 38.1903L12.0236 38.625L14.9652 34.8608L14.409 34.4262ZM11.4743 38.1817C11.3892 38.2839 11.3202 38.3056 11.2575 38.3056V39.0115C11.5666 39.0115 11.8229 38.866 12.0166 38.6336L11.4743 38.1817ZM21.9908 38.3379L21.7346 38.5807L21.7412 38.5876L21.7481 38.5941L21.9908 38.3379ZM21.9211 28.9834L22.1709 29.2331L22.1798 29.2236L21.9211 28.9834ZM22.8134 28.9834L22.5547 29.2236L22.5636 29.2331L22.5732 29.242L22.8134 28.9834ZM23.0085 37.3202H22.6556V37.6732H23.0085V37.3202ZM28.0134 37.5154L27.7548 37.7556L27.7637 37.7651L27.7733 37.774L28.0134 37.5154ZM28.0134 38.4076L27.7731 38.1488L27.7638 38.1581L28.0134 38.4076ZM22.6182 38.2359C22.4675 38.2359 22.3451 38.1874 22.2336 38.0817L21.7481 38.5941C21.9898 38.8231 22.2856 38.9418 22.6182 38.9418V38.2359ZM22.247 38.0952C22.1414 37.9837 22.0928 37.8612 22.0928 37.7106H21.3869C21.3869 38.0432 21.5057 38.339 21.7346 38.5807L22.247 38.0952ZM22.0928 37.7106V29.4295H21.3869V37.7106H22.0928ZM22.0928 29.4295C22.0928 29.343 22.1185 29.2852 22.1707 29.233L21.6716 28.7338C21.4821 28.9233 21.3869 29.1628 21.3869 29.4295H22.0928ZM22.1798 29.2236C22.2342 29.1649 22.2894 29.1412 22.3672 29.1412V28.4353C22.0919 28.4353 21.8497 28.5417 21.6625 28.7432L22.1798 29.2236ZM22.3672 29.1412C22.4451 29.1412 22.5003 29.1649 22.5547 29.2236L23.072 28.7432C22.8848 28.5417 22.6426 28.4353 22.3672 28.4353V29.1412ZM22.5732 29.242C22.6318 29.2965 22.6556 29.3517 22.6556 29.4295H23.3615C23.3615 29.1542 23.2551 28.9119 23.0535 28.7248L22.5732 29.242ZM22.6556 29.4295V37.3202H23.3615V29.4295H22.6556ZM23.0085 37.6732H27.5673V36.9673H23.0085V37.6732ZM27.5673 37.6732C27.6451 37.6732 27.7003 37.6969 27.7548 37.7556L28.272 37.2752C28.0849 37.0737 27.8426 36.9673 27.5673 36.9673V37.6732ZM27.7733 37.774C27.8319 37.8285 27.8556 37.8837 27.8556 37.9615H28.5615C28.5615 37.6862 28.4552 37.4439 28.2536 37.2568L27.7733 37.774ZM27.8556 37.9615C27.8556 38.0393 27.8319 38.0945 27.7733 38.149L28.2536 38.6663C28.4552 38.4791 28.5615 38.2369 28.5615 37.9615H27.8556ZM27.7638 38.1581C27.7116 38.2103 27.6538 38.2359 27.5673 38.2359V38.9418C27.834 38.9418 28.0735 38.8466 28.263 38.6572L27.7638 38.1581ZM27.5673 38.2359H22.6182V38.9418H27.5673V38.2359ZM31.9333 38.5331L31.8463 38.8752L31.8531 38.8768L31.9333 38.5331ZM30.4973 38.0591L30.3513 38.3805L30.3574 38.3831L30.4973 38.0591ZM30.2185 37.836L29.9248 38.0318L29.9344 38.0462L29.9454 38.0595L30.2185 37.836ZM30.2603 37.0832L30.5207 37.3219L30.5298 37.3112L30.2603 37.0832ZM30.9435 36.9577L30.8001 37.2803L30.801 37.2807L30.9435 36.9577ZM32.1006 37.3481L32.0101 37.6892L32.0118 37.6897L32.1006 37.3481ZM34.9306 37.3899L35.0183 37.7319L35.0242 37.7302L34.9306 37.3899ZM35.8089 36.888L36.0687 37.1271L36.0733 37.1219L35.8089 36.888ZM35.8089 35.2151L35.5773 35.4815L35.5841 35.4872L35.8089 35.2151ZM34.9585 34.755L34.8443 35.089H34.8443L34.9585 34.755ZM33.7875 34.4205L33.7036 34.7633L33.7054 34.7637L33.7875 34.4205ZM32.5327 34.0859L32.4279 34.4229L32.4348 34.4249L32.5327 34.0859ZM31.3756 33.584L31.5525 33.2785V33.2785L31.3756 33.584ZM30.5252 32.8033L30.2302 32.9971L30.2329 33.001L30.5252 32.8033ZM30.6089 30.1545L30.3114 29.9646L30.3103 29.9662L30.6089 30.1545ZM31.8357 29.1089L31.9891 29.4267L31.8357 29.1089ZM35.3349 28.844L35.3975 28.4966H35.3974L35.3349 28.844ZM36.5896 29.1786L36.4657 29.5091L36.469 29.5103L36.5896 29.1786ZM36.8545 29.3598L36.5907 29.5943L36.5976 29.602L36.6049 29.6094L36.8545 29.3598ZM36.8266 30.1405L36.5491 29.9224L36.5469 29.9253L36.8266 30.1405ZM36.3108 30.3078L36.153 30.6235L36.1876 30.6408L36.2252 30.6502L36.3108 30.3078ZM36.1993 30.266L36.0818 30.5988L36.0975 30.6043L36.1137 30.6084L36.1993 30.266ZM35.1537 30.0011L35.0844 30.3473L35.0943 30.349L35.1537 30.0011ZM32.1842 30.2939L32.0098 29.9871L32.1842 30.2939ZM31.7939 32.3014L32.0378 32.0463L31.7939 32.3014ZM32.6443 32.7893L32.53 33.1233V33.1233L32.6443 32.7893ZM33.8014 33.1239L33.7176 33.4668L33.7248 33.4685L33.8014 33.1239ZM35.0561 33.4446L34.9581 33.7836L35.0561 33.4446ZM36.2132 33.9325L36.0363 34.238L36.0425 34.2414L36.2132 33.9325ZM37.0636 34.7272L36.7662 34.9172L36.7687 34.921L37.0636 34.7272ZM36.9382 37.4178L36.6505 37.2133L36.6496 37.2145L36.9382 37.4178ZM35.6974 38.3797L35.5577 38.0556L35.5556 38.0565L35.6974 38.3797ZM33.8153 38.3753C33.1397 38.3753 32.5399 38.3122 32.0135 38.1894L31.8531 38.8768C32.442 39.0142 33.0969 39.0812 33.8153 39.0812V38.3753ZM32.0202 38.191C31.4854 38.0551 31.0252 37.9026 30.6373 37.7351L30.3574 38.3831C30.7874 38.5688 31.2844 38.7323 31.8463 38.8752L32.0202 38.191ZM30.6434 37.7378C30.5984 37.7174 30.547 37.6802 30.4917 37.6125L29.9454 38.0595C30.0573 38.1963 30.1918 38.3079 30.3513 38.3804L30.6434 37.7378ZM30.5122 37.6403C30.4721 37.5801 30.4599 37.5311 30.4599 37.4875H29.754C29.754 37.6855 29.8162 37.8689 29.9248 38.0318L30.5122 37.6403ZM30.4599 37.4875C30.4599 37.4135 30.4808 37.365 30.5205 37.3217L30.0002 36.8447C29.8354 37.0245 29.754 37.2455 29.754 37.4875H30.4599ZM30.5298 37.3112C30.5567 37.2794 30.5923 37.2549 30.6786 37.2549V36.549C30.4117 36.549 30.1685 36.6454 29.9909 36.8552L30.5298 37.3112ZM30.6786 37.2549C30.7229 37.2549 30.7623 37.2635 30.8001 37.2803L31.0868 36.6352C30.9573 36.5777 30.8201 36.549 30.6786 36.549V37.2549ZM30.801 37.2807C31.1386 37.4296 31.5428 37.5653 32.0101 37.6892L32.1911 37.007C31.7475 36.8893 31.3803 36.7647 31.0859 36.6348L30.801 37.2807ZM32.0118 37.6897C32.5114 37.8196 33.0719 37.8823 33.6899 37.8823V37.1764C33.1182 37.1764 32.6192 37.1183 32.1894 37.0065L32.0118 37.6897ZM33.6899 37.8823C34.1773 37.8823 34.6213 37.8336 35.0183 37.7318L34.843 37.048C34.5151 37.1321 34.1318 37.1764 33.6899 37.1764V37.8823ZM35.0242 37.7302C35.4456 37.6143 35.8011 37.4178 36.0687 37.127L35.5492 36.6491C35.3892 36.823 35.1592 36.961 34.837 37.0496L35.0242 37.7302ZM36.0733 37.1219C36.3569 36.8013 36.4825 36.3905 36.4825 35.9261H35.7766C35.7766 36.261 35.6885 36.4915 35.5446 36.6542L36.0733 37.1219ZM36.4825 35.9261C36.4825 35.5322 36.3351 35.192 36.0337 34.943L35.5841 35.4872C35.7102 35.5914 35.7766 35.7252 35.7766 35.9261H36.4825ZM36.0405 34.9488C35.7833 34.7251 35.4561 34.5522 35.0728 34.4211L34.8443 35.089C35.1673 35.1995 35.407 35.3333 35.5773 35.4814L36.0405 34.9488ZM35.0728 34.4211C34.7074 34.2961 34.3061 34.1816 33.8695 34.0772L33.7054 34.7637C34.1239 34.8638 34.5033 34.9723 34.8443 35.089L35.0728 34.4211ZM33.8713 34.0776C33.4578 33.9765 33.0443 33.8663 32.6307 33.7468L32.4348 34.4249C32.8577 34.5471 33.2806 34.6599 33.7036 34.7633L33.8713 34.0776ZM32.6376 33.7489C32.2426 33.626 31.8813 33.4689 31.5525 33.2785L31.1988 33.8894C31.5763 34.108 31.9864 34.2855 32.4279 34.4229L32.6376 33.7489ZM31.5525 33.2785C31.2421 33.0989 30.9994 32.8743 30.8176 32.6055L30.2329 33.001C30.4786 33.3642 30.8028 33.6601 31.1988 33.8894L31.5525 33.2785ZM30.8202 32.6095C30.6531 32.3553 30.5575 32.0184 30.5575 31.5765H29.8516C29.8516 32.1197 29.9698 32.6007 30.2303 32.9971L30.8202 32.6095ZM30.5575 31.5765C30.5575 31.1205 30.6745 30.7121 30.9074 30.3427L30.3103 29.9662C30.0041 30.4519 29.8516 30.9915 29.8516 31.5765H30.5575ZM30.9064 30.3443C31.1448 29.9708 31.4997 29.663 31.9891 29.4267L31.6822 28.791C31.0935 29.0752 30.6306 29.4644 30.3114 29.9646L30.9064 30.3443ZM31.9891 29.4267C32.4681 29.1955 33.0722 29.0715 33.8153 29.0715V28.3656C32.997 28.3656 32.2814 28.5018 31.6822 28.791L31.9891 29.4267ZM33.8153 29.0715C34.346 29.0715 34.8313 29.1119 35.2724 29.1913L35.3974 28.4966C34.9091 28.4087 34.3814 28.3656 33.8153 28.3656V29.0715ZM35.2724 29.1913C35.72 29.2719 36.1172 29.3783 36.4657 29.509L36.7136 28.8481C36.3186 28.7 35.8793 28.5834 35.3975 28.4966L35.2724 29.1913ZM36.469 29.5103C36.5146 29.5268 36.5541 29.5531 36.5907 29.5943L37.1183 29.1253C37.0062 28.9992 36.8692 28.9047 36.7102 28.8469L36.469 29.5103ZM36.6049 29.6094C36.605 29.6094 36.6051 29.6095 36.6053 29.6098C36.6056 29.6101 36.6061 29.6108 36.6068 29.612C36.6081 29.6143 36.6108 29.6193 36.6138 29.6283C36.62 29.6469 36.627 29.6809 36.627 29.7362H37.3329C37.3329 29.5145 37.2773 29.2834 37.1041 29.1102L36.6049 29.6094ZM36.627 29.7362C36.627 29.7825 36.612 29.8425 36.5491 29.9225L37.1042 30.3586C37.2458 30.1783 37.3329 29.9688 37.3329 29.7362H36.627ZM36.5469 29.9253C36.5319 29.9448 36.509 29.9688 36.4223 29.9688V30.6747C36.6889 30.6747 36.9355 30.5779 37.1064 30.3557L36.5469 29.9253ZM36.4223 29.9688C36.4149 29.9688 36.4065 29.9679 36.3964 29.9654L36.2252 30.6502C36.2895 30.6663 36.3554 30.6747 36.4223 30.6747V29.9688ZM36.4686 29.9921C36.4104 29.963 36.349 29.9396 36.2849 29.9236L36.1137 30.6084C36.1239 30.6109 36.1369 30.6155 36.153 30.6235L36.4686 29.9921ZM36.3167 29.9332C35.9792 29.814 35.611 29.7211 35.2131 29.6532L35.0943 30.349C35.4585 30.4112 35.7873 30.4949 36.0818 30.5988L36.3167 29.9332ZM35.2229 29.655C34.8257 29.5756 34.4026 29.5366 33.9548 29.5366V30.2425C34.3619 30.2425 34.7382 30.2779 35.0845 30.3472L35.2229 29.655ZM33.9548 29.5366C33.2048 29.5366 32.5504 29.6796 32.0098 29.9871L32.3587 30.6007C32.766 30.369 33.2919 30.2425 33.9548 30.2425V29.5366ZM32.0098 29.9871C31.4319 30.3156 31.1203 30.8242 31.1203 31.4789H31.8262C31.8262 31.0926 31.9885 30.8112 32.3587 30.6007L32.0098 29.9871ZM31.1203 31.4789C31.1203 31.902 31.2551 32.2745 31.5499 32.5564L32.0378 32.0463C31.9051 31.9194 31.8262 31.7435 31.8262 31.4789H31.1203ZM31.5499 32.5564C31.809 32.8043 32.1407 32.9901 32.53 33.1233L32.7585 32.4554C32.4415 32.3469 32.2062 32.2074 32.0378 32.0463L31.5499 32.5564ZM32.53 33.1233C32.8946 33.248 33.2906 33.3624 33.7176 33.4668L33.8852 32.7811C33.4757 32.681 33.1003 32.5723 32.7585 32.4554L32.53 33.1233ZM33.7248 33.4685C34.1358 33.5598 34.5469 33.6648 34.9581 33.7836L35.1541 33.1055C34.7289 32.9827 34.3035 32.874 33.878 32.7794L33.7248 33.4685ZM34.9581 33.7836C35.3506 33.897 35.7096 34.0488 36.0364 34.238L36.3901 33.6271C36.0105 33.4073 35.598 33.2338 35.1541 33.1055L34.9581 33.7836ZM36.0425 34.2414C36.3451 34.4086 36.5846 34.633 36.7662 34.9172L37.3611 34.5371C37.1151 34.1521 36.7877 33.8467 36.3839 33.6236L36.0425 34.2414ZM36.7687 34.921C36.9332 35.1714 37.0313 35.5247 37.0313 36.0097H37.7372C37.7372 35.4353 37.6216 34.9335 37.3586 34.5333L36.7687 34.921ZM37.0313 36.0097C37.0313 36.458 36.9048 36.8557 36.6505 37.2133L37.2258 37.6223C37.5663 37.1435 37.7372 36.6024 37.7372 36.0097H37.0313ZM36.6496 37.2145C36.4051 37.5616 36.0475 37.8445 35.5577 38.0556L35.8371 38.7039C36.4255 38.4503 36.895 38.0919 37.2267 37.6211L36.6496 37.2145ZM35.5556 38.0565C35.0803 38.265 34.5034 38.3753 33.8153 38.3753V39.0812C34.5771 39.0812 35.2549 38.9592 35.8392 38.703L35.5556 38.0565Z" fill="white" mask="url(#path-5-outside-1_288_3412)"/>
<mask id="mask1_288_3412" style="mask-type:alpha" maskUnits="userSpaceOnUse" x="0" y="0" width="48" height="55">
<path d="M44.1176 54.3539H3.88235C1.73819 54.3539 0 52.6157 0 50.4716V3.88333C0 1.73917 1.73819 0.000976562 3.88235 0.000976562H30L48 18.001V50.4716C48 52.6157 46.2618 54.3539 44.1176 54.3539Z" fill="url(#paint2_linear_288_3412)"/>
</mask>
<g mask="url(#mask1_288_3412)">
<ellipse opacity="0.05" cx="-2.55882" cy="-2.20468" rx="39.4412" ry="37.8529" fill="url(#paint3_linear_288_3412)"/>
<ellipse opacity="0.07" cx="-2.55842" cy="-2.20514" rx="24.7941" ry="23.7353" fill="url(#paint4_linear_288_3412)"/>
</g>
<g filter="url(#filter1_d_288_3412)">
<path d="M48 18.0005H33.8824C31.7382 18.0005 30 16.2623 30 14.1181V0.000488281L48 18.0005Z" fill="url(#paint5_linear_288_3412)"/>
</g>
</g>
<defs>
<filter id="filter0_f_288_3412" x="1.58835" y="19.4121" width="45.1768" height="28.5884" filterUnits="userSpaceOnUse" color-interpolation-filters="sRGB">
<feFlood flood-opacity="0" result="BackgroundImageFix"/>
<feBlend mode="normal" in="SourceGraphic" in2="BackgroundImageFix" result="shape"/>
<feGaussianBlur stdDeviation="3.44118" result="effect1_foregroundBlur_288_3412"/>
</filter>
<filter id="filter1_d_288_3412" x="25.9412" y="-4.23481" width="26.8235" height="26.8235" filterUnits="userSpaceOnUse" color-interpolation-filters="sRGB">
<feFlood flood-opacity="0" result="BackgroundImageFix"/>
<feColorMatrix in="SourceAlpha" type="matrix" values="0 0 0 0 0 0 0 0 0 0 0 0 0 0 0 0 0 0 127 0" result="hardAlpha"/>
<feOffset dx="0.352941" dy="0.176471"/>
<feGaussianBlur stdDeviation="2.20588"/>
<feColorMatrix type="matrix" values="0 0 0 0 0 0 0 0 0 0 0 0 0 0 0 0 0 0 0.33 0"/>
<feBlend mode="normal" in2="BackgroundImageFix" result="effect1_dropShadow_288_3412"/>
<feBlend mode="normal" in="SourceGraphic" in2="effect1_dropShadow_288_3412" result="shape"/>
</filter>
<linearGradient id="paint0_linear_288_3412" x1="24" y1="0.000488281" x2="24" y2="54.3534" gradientUnits="userSpaceOnUse">
<stop stop-color="#FF7979"/>
<stop offset="1" stop-color="#E85555"/>
</linearGradient>
<linearGradient id="paint1_linear_288_3412" x1="24" y1="0.000488281" x2="24" y2="54.3534" gradientUnits="userSpaceOnUse">
<stop offset="0.000265127" stop-color="#83CC70"/>
<stop offset="1" stop-color="#61A850"/>
</linearGradient>
<linearGradient id="paint2_linear_288_3412" x1="24" y1="0.000976562" x2="24" y2="54.3539" gradientUnits="userSpaceOnUse">
<stop offset="0.000265127" stop-color="#83CC70"/>
<stop offset="1" stop-color="#61A850"/>
</linearGradient>
<linearGradient id="paint3_linear_288_3412" x1="0.304892" y1="-0.90389" x2="12.2659" y2="30.8408" gradientUnits="userSpaceOnUse">
<stop stop-color="white" stop-opacity="0"/>
<stop offset="1" stop-color="white"/>
</linearGradient>
<linearGradient id="paint4_linear_288_3412" x1="-0.75819" y1="-1.38949" x2="6.72753" y2="18.5283" gradientUnits="userSpaceOnUse">
<stop stop-color="white" stop-opacity="0"/>
<stop offset="1" stop-color="white"/>
</linearGradient>
<linearGradient id="paint5_linear_288_3412" x1="39" y1="0.000488281" x2="39" y2="18.0005" gradientUnits="userSpaceOnUse">
<stop stop-color="#3FAF43"/>
<stop offset="1" stop-color="#0E8312"/>
</linearGradient>
</defs>
</svg>
